<svg width="154" height="134" viewBox="0 0 154 134" fill="none" xmlns="http://www.w3.org/2000/svg"><g clip-path="url(#clip0_1405_31021)" fill="#000"><path d="M76.83 36.92c4.985 0 9.7-1.062 13.504-2.257 5.636-1.853 8.258-1.721 10.481-2.257 1.311-.395 2.362-.931 2.362-1.853 0-.922-1.181-2.784-1.571-3.574-.921-1.59-2.232-2.916-3.144-4.242-1.311-1.853-2.232-2.258-3.534-2.521-1.441-.264-4.064-1.063-5.636-1.458-3.273-.8-3.803-1.59-5.505-2.784-1.051-.8-2.232-1.458-3.804-2.39-2.232-.526-4.455-.799-5.896-.799-1.702 0-3.534.264-4.845.264v-.264c.79 0 3.673-1.457 5.635-1.457.651 0 1.051.131 1.442.131.65 0 2.092-.395 2.623-1.326l1.962-3.979L75.398.981c-2.362 0-3.934.132-7.077 3.311-.26.263-2.232 2.257-4.064 3.574l1.832 3.048c.52.8.52 1.853-.26 2.652-2.493.8-4.585 1.853-6.427 3.443-1.05.93-2.362 1.852-4.985 2.915-.79.264-4.984 1.853-6.947 3.311-1.05.8-1.832 1.853-2.092 3.443-.39 1.59-1.442 3.574-2.362 5.831 2.092 0 3.934-.263 5.245-.263 5.636 0 17.958 4.637 28.57 4.637v.037zm2.493-18.425l4.194 2.784c2.093 1.326 4.064 1.326 6.157 2.257 1.571.659 3.934 2.116 3.934 2.916-.26.527-1.572.658-2.363.658-1.571 0-3.013-.526-4.064-.93l-8.779-7.159c0-.395.39-.526.92-.526zm-9.31-1.722c.921 0 1.833 0 1.833 2.916 0 .931 0 3.18 1.31 5.305l2.233 3.847-.92 2.116-5.246-.395c-1.442-1.326-3.143-4.11-3.143-5.831 3.143-3.443 3.933-5.174 3.933-7.958zm-20.44 10.074c1.701-1.195 3.142-2.52 4.584-3.31 1.05-.66 2.492-1.195 2.883-1.327 1.962-.8 1.962-1.59 3.804-1.59-1.702 1.853-3.934 2.916-5.245 4.242-1.442 1.327-3.274 1.985-4.585 1.985-.521 0-.921 0-1.442.132v-.132zM75.918 58.92c-.39.264-1.05.8-1.441 1.59.92-.263 1.571-.263 1.571-.263 1.832 0 2.753.263 2.883.263.26 0 .651-.132.79-.527L77.23 58.79c-.26-.132-.65-.264-1.31.131zm55.697 48.647l-2.753-1.185h-.651l3.794 7.684 2.232 2.784.261-.395-.13-2.389-2.753-6.499z"/><path d="M87.063 50.84l-4.325-1.72c-.79-.264-1.311-.527-1.962-.527l-7.598.395-2.093-.527-3.143 1.721.26 2.785-.39 4.242c-.13 1.194 1.572 5.173 1.572 9.415l.39.526.651-.526c0-2.521-.13-5.437-.52-8.09l.52-5.172.52 2.116.922 1.326.39 1.458c.13.395.521.527.79.395l1.052-.527 8.258-.93 3.534 1.062.26-.527c-1.18-1.853-5.375-3.574-7.728-3.574-.65 0-1.05.132-1.441.132h-.26v-.395c1.831-1.327 2.361-1.458 3.803-1.458 3.804 0 5.896.931 7.998 1.458l-.39-1.985c-.13-.658-.391-.8-1.052-1.063l-.018-.01zm37.476 53.943l6.166 13.638c.409-.226.818-.461 1.228-.696l-5.692-12.688c-.521 0-1.181-.264-1.702-.264v.01zm29.377-5.286L136.73 81.193l-2.363 1.326-4.715-5.041-6.556 3.574-9.17-9.415-4.715 8.089 3.804 13.384 23.324 8.747 6.426 8.541c4.213-3.349 7.952-6.998 11.151-10.91v.009zm-23.213-3.33l-7.998-5.305 3.144-1.721 6.426 5.436 4.064 1.195-5.636.395zm15.336 1.458l-20.311-11.4-5.766 3.979-2.362-.395-4.716-9.01 1.702-4.243 7.729 8.484 6.286-3.715 4.985 5.436 3.144-1.721 9.309 11.795v.8-.01zm-99.609 23.73l-7.599-5.963 1.963-7.957-2.232-2.116 2.362-6.631-3.143-3.574-19.53 6.631-7.478 14.475a92.86 92.86 0 002.781 1.731l7.189-10.902 1.311.527-5.012 12.359c1.2.649 2.427 1.289 3.673 1.9l3.962-8.023 2.883 1.985-2.93 7.853c5.897 2.596 12.22 4.741 18.88 6.368l2.529-2.295.39-6.358v-.01zm63.429-23.457v1.326l1.312 5.305 4.585 14.315 1.181-.527-2.753-11.926.79-1.59 6.947 16.968-4.715 2.258.661 1.89a106.17 106.17 0 007.756-3.264l-8.937-21.821-6.817-2.915-.01-.02z"/><path d="M85.621 114.724l1.05.395 2.233 11.4.92 1.59 12.584-9.011-3.404-18.952.79.799 2.623 11.927 5.115-4.901-3.013-14.974 5.766-2.652-2.363-10.205-3.013-11.795 3.013-.395c1.312-.132 2.232-.527 2.493-.659 3.143-1.59 13.894-15.246 13.894-18.03 0-3.311-14.545-14.71-19-14.71-1.441 0-8.258 1.194-11.662 1.457-4.455.395-11.402 2.52-19 2.52-1.832 0-8.649.133-15.206-1.325-3.273-.659-7.077-1.063-9.17-1.063-5.635 0-16.646 2.652-20.05 4.637-2.623 1.458-6.287 1.458-6.287 4.9 0 .527.13.931.52 1.59.922 1.72 1.312 3.574 2.884 6.499 1.311 2.52 2.092 4.769 3.934 7.421 1.05 1.326 1.572 1.721 2.362 1.853l9.57 1.59c.26 1.853.79 5.041 2.092 6.095.651.526 1.832.799 1.442 1.984l-3.674 11.4-6.556-6.227-1.963 1.59-6.817-6.358-3.403-.395-7.208 11.136-2.232-.931-6.947 11.004-2.622-1.457L.07 103.728c2.902 2.925 6.138 5.662 9.672 8.202l7.505-12.434 21.362-6.095 4.065 4.242-1.442 5.831 1.832 2.258-1.832 8.352 3.534 3.715 3.274-7.553 1.311.527-2.232 9.011 1.311 1.853-.13 4.11 5.022 4.947c1.804.292 3.627.555 5.46.772l2.492-12.209.65.527v2.257L60.884 133c4.287.423 8.658.649 13.104.649 1.441 0 2.883-.028 4.315-.075l.27-5.305-.921-17.758.92-.132.921 12.726.521 10.403c2.427-.113 4.836-.283 7.208-.527l-.651-8.296-.921-9.942-.028-.019zM19.433 90.335l-3.404-.799-2.362 2.389-3.804 6.095v-1.721l5.896-9.274 3.934 2.784-.26.526zm23.854.132l-10.61-4.373-2.754 2.652-7.207-4.242-1.442 1.458-1.571-1.195 4.984-7.816 1.051-.263 8.129 6.763 1.701-1.458 4.195 3.574 3.534 4.373v.527h-.01zm2.093-29.694c.39-.263.79-.395 1.181-.395.52 2.117.651 4.374.79 7.026-1.31-2.116-2.092-4.242-1.962-6.63h-.01zm47.84 60.046l-3.405-15.905-.26-2.652 1.181-.395 2.623 10.6 1.702 7.158-1.833 1.194h-.009zm7.076-64.288c1.312 0 2.493 1.458 2.493 3.575l-1.442.263-2.092 4.637-1.442.263c0-2.784-.13-8.747 2.493-8.747l-.01.01zM55.47 72.963v2.258l2.093 5.04h-1.311l-3.674-7.956 2.362-3.048v-1.194l-3.013-6.895c1.962-1.194 3.804-1.194 5.636-1.59-.79 1.195-1.702 1.985-2.883 2.653 1.311.527 2.623 0 3.934 0l.65 9.547-3.803 1.194.01-.009zm-2.622-15.905c.92-.8 2.622-1.721 3.803-1.721.651 0 1.051.263 1.051.8-1.571.131-3.273.394-4.845.93l-.01-.009zm9.7 14.184c0-4.505.92-8.748 1.18-13.121l.391-7.29-3.143-1.853-4.064-.131c-.39-.264-.52-.527-.52-.931 0-.405 0-.931 1.05-1.59 1.441-.931 2.883-.658 4.585-.658 5.766 0 11.662-1.59 20.441-1.59 4.325 0 7.468.395 10.751 3.18l4.064 3.573c.651.527.92 1.063.521 1.853l-.26.527-3.144-1.326C92.828 54 91.517 57.32 92.038 60.5l1.442 8.352 2.752.931.13 1.063-1.441.658-.39 4.242-1.963-2.257c-1.441-1.59-2.753-1.721-4.064-1.853l2.883 5.436-2.362 12.595-1.312.131 1.572-13.12-4.454-5.305c-2.233-.395-4.585-.527-6.817-.264l-3.144-6.226h-.52c-.261 0-.521.131-.652.93l1.442 3.98c.26.658.39 1.326-.651 1.589l-3.144.658c-.52.132-.65.264-.79.659l-.13.526c-.13.659-1.832.932-4.194.932-3.404 0-3.674-.527-3.674-2.916h-.01zm11.01 50.236l-.92-15.774-2.492 1.327-.521.526-.651 7.816h-.79l.26-9.415 5.505-2.52.521 18.03h-.92l.009.01zm9.961-29.826l.651-4.505-1.702.395-2.492 11.926h-.651l-1.311-7.816c-1.572-.93-3.804-1.326-6.157-1.326-1.832 0-3.804.263-5.115 2.116h-.39c-.391 0-.652-.131-.791-.8-.14-.667-.13-1.589-.13-2.652 1.571-.658 3.803-1.062 5.766-1.062 1.05 0 2.232.131 2.883.131 1.311 0 1.571-.526 1.832-1.458l.39-1.59c-1.571 0-5.375.133-6.686-.93 0-1.063.52-1.985 1.832-1.985l3.273-.132c1.312 0 2.493-.263 3.804-.8l5.115-1.852 3.013 1.458-2.092 11.4-1.051-.527.01.01zm11.919 38.319l.558 1.797a121.514 121.514 0 008.909-1.863l-.818-2.586-8.65 2.652zm15.207-19.752l-1.051 1.326.521 2.653 2.092 9.274.53 4.204c.846-.273 1.683-.555 2.511-.846l-3.05-11.711-1.572-4.9h.019zm-3.668 13.121l.809 5.813a111.55 111.55 0 003.152-.913l-1.59-5.831-2.362.931h-.009z"/></g><defs><clipPath id="clip0_1405_31021"><path fill="#fff" d="M0 0h154v134H0z"/></clipPath></defs></svg>