<svg width="130" height="24" viewBox="0 0 130 24" fill="none" xmlns="http://www.w3.org/2000/svg"><g clip-path="url(#clip0_984_24569)" fill="#fff"><path d="M4.998 4.924h-3.59c-.742 0-1.33.586-1.33 1.327V17.64c0 .74.588 1.327 1.33 1.327a1.32 1.32 0 001.331-1.327v-1.945H5c2.97 0 5.415-2.407 5.415-5.401-.031-2.932-2.445-5.37-5.416-5.37zm0 8.148H2.74V7.578H5a2.757 2.757 0 012.753 2.747 2.757 2.757 0 01-2.754 2.747zm18.01 6.203c-2.692-1.172-3.25-3.395-3.373-4.475a5.366 5.366 0 002.382-4.444 5.414 5.414 0 00-5.415-5.401h-3.559c-.742 0-1.33.586-1.33 1.327V17.67c0 .74.588 1.327 1.33 1.327a1.32 1.32 0 001.331-1.328v-1.944h2.26c.154 0 .34 0 .494-.03.31 1.79 1.393 4.505 4.858 5.987.186.061.34.123.527.123.495 0 .99-.308 1.206-.802.248-.68-.062-1.45-.711-1.729zM14.343 7.578h2.26a2.757 2.757 0 012.753 2.747 2.757 2.757 0 01-2.754 2.747h-2.259V7.578zm15.04-2.654c-3.621 0-5.973 2.747-5.973 7.006s2.352 7.006 5.973 7.006c3.62 0 5.972-2.747 5.972-7.006.03-4.26-2.321-7.006-5.972-7.006zm0 11.388c-3.002 0-3.343-3.055-3.343-4.382 0-1.327.34-4.383 3.343-4.383 3.001 0 3.341 3.056 3.341 4.383s-.309 4.382-3.341 4.382zm19.929-4.352l2.166-2.5c2.228-2.345 1.423-4.907.34-6.049-.03-.03-.03-.061-.062-.092a1.329 1.329 0 00-1.887 0 1.32 1.32 0 000 1.882l.03.031c.28.34.836 1.235-.34 2.439l-.061.061-1.92 2.223-3.898-4.537c-.464-.556-1.3-.618-1.857-.155a1.315 1.315 0 00-.154 1.852l4.146 4.846-4.146 4.845c-.031.031-.031.031-.031.062l-.031.03c0 .032-.031.032-.031.063 0 .03-.031.03-.031.061s-.031.031-.031.062c0 .03-.031.03-.031.062 0 .03 0 .03-.031.061 0 .031-.031.031-.031.062s0 .031-.031.062c0 .03 0 .03-.03.062v.494c0 .03 0 .03.03.061v.062c0 .03 0 .03.031.062 0 .03 0 .03.03.061 0 .031.032.031.032.062s.03.031.03.062c0 .03.032.03.032.062 0 .03.03.03.03.061s.032.031.032.062c0 .03.03.03.03.062 0 .03.032.03.032.061s.03.031.03.062l.062.062.031.03c.062.032.124.093.186.124 0 0 .03 0 .03.031l.187.093h.03c.062.03.124.03.186.062h.031c.062 0 .124.03.217.03.619 0 1.114.494 1.114 1.111 0 .618-.495 1.111-1.114 1.111a1.32 1.32 0 00-1.33 1.328c0 .74.587 1.327 1.33 1.327 2.073 0 3.775-1.698 3.775-3.766 0-1.234-.588-2.314-1.516-3.024l2.66-3.087 3.9 4.537c.247.309.619.463 1.021.463a1.3 1.3 0 00.867-.308 1.315 1.315 0 00.154-1.852l-4.208-4.938zm15.935-6.975c-.557-.185-1.145.031-1.486.494l-5.88 8.087V6.25c0-.74-.587-1.327-1.33-1.327-.742 0-1.33.586-1.33 1.327v11.39c0 .586.371 1.08.928 1.265.124.03.279.062.402.062a1.35 1.35 0 001.083-.556l5.88-8.086v7.315c0 .74.588 1.327 1.33 1.327a1.32 1.32 0 001.331-1.327V6.25c0-.586-.371-1.08-.928-1.265zm63.715 0c-.557-.185-1.145.031-1.486.494l-5.879 8.087V6.25a1.32 1.32 0 00-1.331-1.327c-.743 0-1.33.586-1.33 1.327v11.39c0 .586.371 1.08.928 1.265.124.03.278.062.402.062a1.35 1.35 0 001.083-.556l5.88-8.086v7.315c0 .74.588 1.327 1.33 1.327a1.32 1.32 0 001.331-1.327V6.25a1.409 1.409 0 00-.928-1.265zm-51.707-.061c-.743 0-1.331.586-1.331 1.327v6.512h-5.632V6.251a1.32 1.32 0 00-1.33-1.327c-.743 0-1.331.586-1.331 1.327V17.64c0 .74.588 1.327 1.33 1.327a1.32 1.32 0 001.331-1.327v-2.254h5.632v2.254c0 .74.588 1.327 1.33 1.327a1.32 1.32 0 001.331-1.327V6.25c0-.74-.619-1.326-1.33-1.326zm9.53 6.173c2.692 0 4.58-2.007 4.58-4.846a1.32 1.32 0 00-1.331-1.327 1.32 1.32 0 00-1.33 1.327c0 1.913-1.207 2.222-1.92 2.222h-3.898V6.251a1.32 1.32 0 00-1.33-1.327 1.32 1.32 0 00-1.331 1.327V17.64c0 .74.588 1.327 1.33 1.327.743 0 1.33-.587 1.33-1.327v-2.254h3.9c.712 0 1.918.278 1.918 2.223 0 .74.588 1.327 1.331 1.327a1.32 1.32 0 001.33-1.327c0-2.87-1.887-4.846-4.58-4.846h-3.898v-1.666h3.899zm14.141-6.173h-4.889a1.108 1.108 0 01-1.114-1.111c0-.618.495-1.111 1.114-1.111h1.825a1.32 1.32 0 001.331-1.328 1.32 1.32 0 00-1.33-1.327h-1.951a3.748 3.748 0 00-3.62 3.735c0 2.068 1.701 3.765 3.775 3.765h3.558V9.4h-2.6c-2.63 0-4.795 2.13-4.795 4.784a4.775 4.775 0 004.796 4.784h3.869a1.32 1.32 0 001.331-1.327V6.25c0-.74-.588-1.326-1.3-1.326zm-6.034 9.259c0-1.173.959-2.13 2.135-2.13h2.568v4.26h-2.568a2.137 2.137 0 01-2.135-2.13zm20.424-9.259h-7.148c-.681 0-1.238.524-1.331 1.173 0 .061-.712 7.006-1.083 9.166-.155.895-.836 1.019-1.207 1.019h-.031c-.743 0-1.33.586-1.33 1.327a1.34 1.34 0 001.206 1.327h.217c1.207 0 3.342-.648 3.775-3.21.279-1.698.774-6.05.99-8.179h4.611v10.37c0 .741.588 1.327 1.331 1.327.742 0 1.33-.586 1.33-1.327V6.22c0-.71-.588-1.296-1.33-1.296zM37.553 15.85c-.99 0-1.795.802-1.795 1.79a1.794 1.794 0 003.589 0c0-.988-.804-1.79-1.794-1.79z"/></g><defs><clipPath id="clip0_984_24569"><path fill="#fff" d="M0 0h130v24H0z"/></clipPath></defs></svg>