<svg width="100" height="80" viewBox="0 0 100 80" fill="none" xmlns="http://www.w3.org/2000/svg"><g clip-path="url(#clip0_1011_23608)"><path class="item" d="M36.84 72.806c.02 0 .033-.024.043-.044.01-.01.02-.044.02-.074s-.01-.064-.02-.074c-.01-.03-.02-.044-.043-.044h-1.42c-.02 0-.043.02-.053.044a.162.162 0 00-.02.074c0 .03.01.064.02.074.01.02.03.044.053.044h.583v3.121l-3.01-3.357H31.33c-.02 0-.043.01-.053.044a.13.13 0 00-.024.074c0 .03.01.064.024.074.01.02.03.044.053.044h.593v5.19h-.593c-.02 0-.043.01-.053.03-.01.02-.024.044-.024.074s.01.064.024.085c.01.02.03.033.053.033h1.42c.02 0 .043-.01.053-.033.01-.02.01-.054.01-.085 0-.03 0-.054-.01-.074-.01-.02-.033-.03-.053-.03h-.593V73.92l3.846 4.302h.234v-5.416h.603zm20.563 5.19c-.033 0-.043.01-.053.03a.162.162 0 00-.02.074c0 .03.01.064.02.085.01.02.02.033.053.033h2.617c.023 0 .043-.01.053-.033a.21.21 0 00.02-.085c0-.03-.01-.054-.02-.074-.01-.02-.03-.03-.053-.03h-.37l-2.48-3.55 1.473-1.64h.784c.02 0 .043-.024.053-.044.01-.01.01-.044.01-.074s0-.064-.01-.074c-.01-.03-.033-.044-.053-.044H57.71c-.02 0-.033.01-.043.044-.01.01-.02.044-.02.074s.01.064.02.074c.01.02.02.044.043.044h.637l-2.174 2.433v-2.433h.574c.02 0 .03-.024.043-.044.02-.01.02-.044.02-.074s0-.064-.02-.074c-.01-.03-.02-.044-.043-.044H54.11c-.033 0-.043.01-.053.044-.01.01-.02.044-.02.074s.01.064.02.074c.01.02.02.044.053.044h.56v5.19h-.56c-.033 0-.043.01-.053.03a.162.162 0 00-.02.074c0 .03.01.064.02.085.01.02.02.033.053.033h2.637c.02 0 .03-.01.043-.033.02-.02.02-.054.02-.085 0-.03 0-.054-.02-.074-.01-.02-.02-.03-.043-.03h-.574v-2.359l1.61 2.359h-.38zm-4.343-5.19c.02 0 .043-.024.053-.044.01-.01.02-.044.02-.074s-.01-.064-.02-.074c-.01-.03-.033-.044-.053-.044h-2.637c-.02 0-.043.01-.053.044-.01.01-.01.044-.01.074s0 .064.01.074c.01.02.03.044.053.044h.564v5.19h-.564c-.02 0-.043.01-.053.03-.01.02-.01.044-.01.074s0 .064.01.085c.01.02.03.033.053.033h2.637c.02 0 .043-.01.053-.033a.21.21 0 00.02-.085c0-.03-.01-.054-.02-.074-.01-.02-.033-.03-.053-.03h-.56v-5.19h.56zm-6.23 5.416s.02.02.043.02c.02.01.03.01.054.01.023 0 .043.01.053.01 0 0 .02-.01.043-.01.024 0 .044-.01.054-.01.02-.01.03-.01.043-.02l2.077-5.416h.603c.02 0 .043-.024.053-.044.01-.01.02-.044.02-.074s-.01-.064-.02-.074c-.01-.03-.03-.044-.053-.044h-1.42c-.02 0-.033.01-.053.044-.01.01-.01.044-.01.074s0 .064.01.074c.02.02.033.044.053.044h.573l-1.313 3.368-1.42-3.368h.603c.02 0 .044-.024.054-.044.01-.01.01-.044.01-.074s0-.064-.01-.074c-.01-.03-.034-.044-.054-.044h-2.86c-.02 0-.043.01-.053.044-.01.01-.01.044-.01.074s0 .064.01.074c.01.02.03.044.053.044h.594l2.276 5.416h-.003zm-6.24-5.726c-.277 0-.55.044-.817.118a2.47 2.47 0 00-.743.354 2.444 2.444 0 00-.613.58c-.18.237-.317.503-.424.814a3.56 3.56 0 00-.146 1.049c0 .385.053.729.146 1.04.107.31.244.58.424.812a2.718 2.718 0 001.367.925 2.985 2.985 0 001.633-.01c.263-.074.52-.193.753-.344a2.19 2.19 0 00.613-.58c.18-.227.33-.493.424-.804.106-.31.16-.654.16-1.039a3.26 3.26 0 00-.16-1.05 2.794 2.794 0 00-.424-.813 2.287 2.287 0 00-.613-.58 2.485 2.485 0 00-.753-.354 3.027 3.027 0 00-.817-.118h-.01zm.01 5.598c-.233 0-.423-.054-.583-.152a.88.88 0 01-.36-.429 2.808 2.808 0 01-.18-.739 9.173 9.173 0 01-.054-1.029v-.675c0-.398.02-.739.054-1.04.033-.29.096-.536.18-.738a.906.906 0 01.36-.439c.16-.098.35-.138.583-.152h.01a1.1 1.1 0 01.593.152.907.907 0 01.35.439c.084.202.147.452.18.739.03.3.044.644.044 1.04v.674c0 .385-.01.739-.044 1.03-.033.29-.083.536-.17.738a.897.897 0 01-.36.429c-.146.098-.35.152-.593.152h-.01zm29.347.128s.02.02.03.02c.023.01.043.01.063.01.02 0 .03.01.043.01.014 0 .02-.01.044-.01.023 0 .043-.01.063-.01.02-.01.03-.01.03-.02l2.087-5.416h.603c.02 0 .03-.024.053-.044.01-.01.01-.044.01-.074s0-.064-.01-.074c-.02-.03-.03-.044-.053-.044h-1.42c-.02 0-.043.01-.053.044-.01.01-.02.044-.02.074s.01.064.02.074c.01.02.033.044.053.044h.563l-1.303 3.368-1.42-3.368h.593c.03 0 .044-.024.054-.044a.13.13 0 00.023-.074c0-.03-.01-.064-.023-.074-.01-.03-.02-.044-.054-.044h-2.85c-.033 0-.043.01-.053.044-.01.01-.02.044-.02.074s.01.064.02.074c.01.02.02.044.053.044h.594l2.276 5.416h.004zm-6.24-5.726c-.287 0-.55.044-.817.118-.263.074-.52.192-.753.354a2.624 2.624 0 00-.614.58c-.17.237-.316.503-.413.814a3.66 3.66 0 00-.147 1.049c0 .385.054.729.147 1.04.107.31.243.58.413.812.18.227.394.419.624.57.233.163.476.267.743.355a3.1 3.1 0 00.817.108h.01c.276 0 .55-.044.806-.118a2.78 2.78 0 00.764-.344 2.4 2.4 0 00.613-.58 2.65 2.65 0 00.423-.804c.094-.31.147-.654.16-1.039a3.887 3.887 0 00-.16-1.05 2.791 2.791 0 00-.423-.813 2.494 2.494 0 00-.627-.58 2.377 2.377 0 00-.753-.354 2.954 2.954 0 00-.807-.118h-.01.004zm.01 5.598c-.234 0-.434-.054-.584-.152a.88.88 0 01-.36-.429c-.096-.202-.146-.452-.18-.739a7.33 7.33 0 01-.053-1.029v-.675c0-.398.01-.739.053-1.04.034-.29.084-.536.18-.738a.907.907 0 01.36-.439c.147-.098.35-.138.584-.152h.01c.233 0 .433.054.583.152a.91.91 0 01.36.439c.087.202.15.452.18.739.033.3.043.644.043 1.04v.674c0 .385-.01.739-.043 1.03-.03.29-.093.536-.18.738a.863.863 0 01-.35.429 1.1 1.1 0 01-.593.152h-.01zM25.85 76.12c.03.138.053.408.053.813v.3c0 .439-.02.739-.063.911-.053.182-.137.267-.263.267-.127 0-.224-.064-.287-.183a.785.785 0 01-.107-.428v-1.103c0-.247.044-.44.137-.58.083-.14.19-.217.297-.217.116 0 .19.075.233.216m-2.077-2.028v.108h.33v4.215h-.33v.108h1.334l.043-.345a.48.48 0 00.213.31c.107.065.264.095.467.095.403 0 .71-.118.9-.354.2-.246.307-.61.307-1.103 0-.986-.37-1.482-1.09-1.482-.36 0-.614.172-.764.517v-2.072h-1.41v.003zm3.527 1.728l.997 2.703h.52l-.127.364c-.117.334-.233.57-.36.729-.127.162-.263.246-.423.246-.084 0-.137-.03-.16-.094a.356.356 0 01.01-.226h.2a.505.505 0 00.043-.203c0-.28-.17-.408-.487-.408a.474.474 0 00-.34.128.53.53 0 00-.126.375c0 .158.063.3.2.408.126.108.306.162.54.162a.808.808 0 00.583-.226c.16-.149.307-.408.433-.773l1.09-3.185h.287v-.108h-.817v.108h.394l-.677 1.964-.647-1.964h.317v-.108h-1.693v.108h.243zm1.923-12.376c-.76 0-1.38.623-1.38 1.396 0 .773.617 1.397 1.38 1.397.764 0 1.38-.624 1.38-1.397s-.616-1.397-1.38-1.397zm-6.873.701c-1.457 0-2.88-1.42-2.88-3.455s1.423-3.456 2.88-3.456c1.457 0 2.863 1.421 2.863 3.456 0 2.034-1.406 3.455-2.863 3.455zm0-9c-2.847 0-4.943 2.61-4.943 5.545s2.096 5.544 4.943 5.544c2.847 0 4.927-2.609 4.927-5.544 0-2.936-2.08-5.544-4.927-5.544zM3.573 61.603h-1.51V57.23h1.51c1.21 0 2.17.955 2.17 2.18s-.96 2.197-2.17 2.197m0-6.462H1.03c-.57 0-1.03.47-1.03 1.043v8.999c0 .577.463 1.043 1.03 1.043a1.04 1.04 0 001.03-1.043v-1.495h1.51c2.347 0 4.233-1.926 4.233-4.285S5.92 55.142 3.57 55.142m7.26 2.088h1.51c1.21 0 2.17.955 2.17 2.18s-.96 2.197-2.17 2.197h-1.51V57.23zm6.49 9.162c-1.363-.675-2.483-1.863-2.887-3.26a4.294 4.294 0 002.14-3.725c0-2.376-1.883-4.265-4.233-4.265H9.797c-.57 0-1.03.469-1.03 1.042v9c0 .577.463 1.042 1.03 1.042a1.04 1.04 0 001.03-1.042v-1.495h1.613c.58 2.109 2.23 3.705 3.95 4.575a1.024 1.024 0 001.387-.469c.25-.523.053-1.15-.464-1.403M98.15 55.557l-4.943 6.553v-5.922c0-.577-.464-1.043-1.03-1.043a1.04 1.04 0 00-1.03 1.043v8.999c0 1.026 1.226 1.458 1.85.63l4.943-6.552v5.922c0 .577.463 1.043 1.03 1.043a1.04 1.04 0 001.03-1.043v-9c0-1.025-1.227-1.457-1.85-.63zm-60.053 5.014l1.516-1.522c1.637-1.44 2.08-3.94.657-5.614a1.031 1.031 0 00-1.46-.108 1.058 1.058 0 00-.107 1.474c.534.631.517 1.836-.443 2.666-.03.027-.06.057-.087.088L36.8 58.93l-2.667-3.39a1.012 1.012 0 00-1.44-.163 1.042 1.042 0 00-.16 1.458l2.804 3.563-2.997 3.007c-.36.35-.403.907-.127 1.319.004.007.01.01.014.017a.85.85 0 00.046.064l.07.078a.99.99 0 00.777.306c.69.02 1.233.476 1.233.99 0 .54-.57 1.008-1.28 1.008-.57 0-1.03.47-1.03 1.043a1.04 1.04 0 001.03 1.042c1.724 0 3.344-1.258 3.344-3.094 0-1.083-.58-1.967-1.41-2.504l1.626-1.63 2.984 3.793c.356.45.996.523 1.44.162a1.042 1.042 0 00.16-1.457l-3.12-3.968v-.004zm37.543 3.57c-1.28 0-2.08-.9-2.08-1.71 0-.81.783-1.712 2.08-1.712 1.297 0 2.063.881 2.063 1.711 0 .83-.816 1.711-2.063 1.711zm3.093-9H74.84c-.71 0-1.28-.468-1.28-1.008s.57-.989 1.28-.989c.57 0 1.03-.469 1.03-1.046 0-.577-.463-1.042-1.03-1.042-1.707 0-3.343 1.258-3.343 3.077s1.616 3.094 3.343 3.094h2.863v1.92a4.385 4.385 0 00-2.063-.516c-2.15 0-4.143 1.566-4.143 3.8 0 2.233 1.973 3.795 4.143 3.795s4.127-1.582 4.127-3.796v-6.245c0-.578-.464-1.043-1.03-1.043m9.973 0h-5.76c-.57 0-1.03.469-1.03 1.042v2.774c0 3.671-.25 4.768-1.403 5.257a1.064 1.064 0 00-.57 1.367c.23.54.836.793 1.35.577 2.613-1.097 2.683-3.87 2.683-7.2V57.23h3.7v7.957c0 .577.463 1.043 1.03 1.043a1.04 1.04 0 001.03-1.043v-9c0-.576-.463-1.042-1.03-1.042m-21.817 4.839c2.15 0 4.127-1.583 4.127-3.8 0-.576-.463-1.042-1.03-1.042s-1.033.469-1.033 1.042c0 .81-.8 1.711-2.064 1.711h-2.116v-1.71c0-.578-.464-1.043-1.03-1.043-.567 0-1.03.469-1.03 1.042v9c0 .577.463 1.042 1.03 1.042a1.04 1.04 0 001.03-1.042v-1.711h2.116c1.264 0 2.064.9 2.064 1.71 0 .578.463 1.043 1.033 1.043.57 0 1.03-.469 1.03-1.042 0-2.214-1.973-3.8-4.127-3.8h-2.116V59.98h2.116v.004zm-6.616-4.842c-.57 0-1.03.469-1.03 1.042v5.204h-4.534v-5.203c0-.578-.463-1.043-1.033-1.043-.57 0-1.03.469-1.03 1.042v9c0 .577.463 1.042 1.03 1.042s1.033-.469 1.033-1.042v-1.711h4.534v1.71c0 .578.463 1.043 1.03 1.043a1.04 1.04 0 001.03-1.042v-9c0-.576-.464-1.042-1.03-1.042zm-10.88.415l-4.944 6.553v-5.922c0-.577-.463-1.043-1.03-1.043a1.04 1.04 0 00-1.03 1.043v8.999c0 1.026 1.227 1.458 1.85.63l4.944-6.552v5.922c0 .577.463 1.043 1.03 1.043a1.04 1.04 0 001.03-1.043v-9c0-1.025-1.227-1.457-1.85-.63zm1.796-42.671c1.787 0 3.477-.381 4.84-.81 2.02-.664 2.96-.617 3.757-.81.47-.141.847-.333.847-.664 0-.33-.424-.999-.564-1.282-.33-.57-.8-1.046-1.126-1.522-.47-.665-.8-.81-1.267-.904-.517-.095-1.457-.382-2.02-.523-1.173-.287-1.363-.57-1.973-1-.377-.286-.8-.522-1.364-.856-.8-.19-1.596-.287-2.113-.287-.61 0-1.267.094-1.737.094v-.094c.284 0 1.317-.523 2.02-.523.234 0 .377.047.517.047.233 0 .75-.142.94-.476l.703-1.427L50.68-.007c-.847 0-1.41.048-2.537 1.188-.093.095-.8.81-1.456 1.282l.656 1.093a.742.742 0 01-.093.952c-.893.287-1.643.665-2.303 1.235-.377.334-.847.665-1.787 1.046-.283.095-1.787.665-2.49 1.188a1.856 1.856 0 00-.75 1.235c-.14.57-.517 1.282-.847 2.092.75 0 1.41-.095 1.88-.095 2.02 0 6.437 1.664 10.24 1.664v.013zm.894-6.61l1.503.999c.75.476 1.457.476 2.207.81.563.236 1.41.759 1.41 1.046-.094.189-.564.236-.847.236-.563 0-1.08-.189-1.457-.334l-3.146-2.568c0-.142.14-.189.33-.189zM48.75 5.66c.33 0 .657 0 .657 1.046 0 .334 0 1.14.47 1.903l.8 1.38-.33.759-1.88-.142c-.517-.476-1.127-1.474-1.127-2.092 1.127-1.235 1.41-1.856 1.41-2.854zm-7.327 3.613c.61-.428 1.127-.904 1.644-1.187A5.726 5.726 0 0144.1 7.61c.703-.287.703-.57 1.363-.57-.61.664-1.41 1.046-1.88 1.521-.516.476-1.173.712-1.643.712-.187 0-.33 0-.517.048v-.048zm9.444 11.506a1.55 1.55 0 00-.517.57c.33-.095.563-.095.563-.095.657 0 .987.095 1.034.095.093 0 .233-.047.283-.19l-.893-.428c-.094-.047-.234-.094-.47.048zM70.83 38.23l-.987-.425h-.233l1.36 2.757.8.999.093-.142-.046-.857-.987-2.332z" fill="#000"/><path class="item" d="M54.86 17.88l-1.55-.617c-.283-.095-.47-.19-.703-.19l-2.724.142-.75-.189-1.126.618.093.999-.14 1.521c-.047.43.563 1.856.563 3.378l.14.19.234-.19c0-.904-.047-1.95-.187-2.902l.187-1.855.186.759.33.475.14.524c.047.141.187.188.284.141l.376-.189 2.96-.334 1.267.381.093-.189c-.423-.664-1.926-1.282-2.77-1.282-.233 0-.376.047-.516.047h-.094v-.141c.657-.476.847-.523 1.364-.523 1.363 0 2.113.334 2.866.523l-.14-.712c-.046-.236-.14-.287-.376-.381l-.007-.004zm13.433 19.351l2.21 4.893c.147-.08.294-.165.44-.25l-2.04-4.552c-.186 0-.423-.094-.61-.094v.003zm10.53-1.896l-6.16-6.566-.846.476-1.69-1.809-2.35 1.282-3.287-3.377-1.69 2.901 1.363 4.802 8.36 3.138 2.304 3.064a26.215 26.215 0 003.996-3.914v.003zm-8.32-1.194l-2.866-1.904 1.126-.617 2.304 1.95 1.456.429-2.02.142zm5.497.523l-7.28-4.09-2.067 1.427-.846-.141-1.69-3.233.61-1.522 2.77 3.044 2.253-1.333 1.787 1.95 1.126-.617L76 34.38v.287-.003zm-35.703 8.513l-2.724-2.14.704-2.854-.8-.76.846-2.378-1.126-1.282-7 2.379-2.68 5.192c.326.213.66.419.996.621l2.577-3.91.47.189-1.797 4.433c.43.233.87.463 1.317.682l1.42-2.878 1.033.712L32.483 44c2.114.931 4.38 1.7 6.767 2.285l.907-.824.14-2.28v-.004zm22.736-8.416v.476l.47 1.903 1.644 5.136.423-.189-.987-4.279.284-.57 2.49 6.087-1.69.81.236.678a37.95 37.95 0 002.78-1.17l-3.203-7.829-2.443-1.046-.004-.007z" fill="#000"/><path class="item" d="M54.343 40.798l.377.142.8 4.09.33.57 4.51-3.233-1.22-6.8.283.288.94 4.278 1.834-1.758-1.08-5.371 2.066-.952-.846-3.661-1.08-4.231 1.08-.142c.47-.047.8-.19.893-.236 1.127-.57 4.98-5.47 4.98-6.469 0-1.188-5.213-5.277-6.81-5.277-.517 0-2.96.428-4.18.523-1.597.142-4.087.904-6.81.904-.657 0-3.1.047-5.45-.476-1.173-.236-2.537-.38-3.287-.38-2.02 0-5.966.95-7.186 1.663-.94.523-2.254.523-2.254 1.758 0 .189.047.334.187.57.33.617.47 1.282 1.033 2.332.47.904.75 1.71 1.41 2.662.377.476.564.617.847.665l3.43.57c.093.664.283 1.808.75 2.186.233.19.657.287.517.712l-1.317 4.09-2.35-2.234-.703.57-2.444-2.28-1.22-.142-2.583 3.995-.8-.334-2.49 3.947-.94-.523-1.88 4.04c1.04 1.049 2.2 2.03 3.467 2.942l2.69-4.46 7.656-2.188 1.457 1.522-.517 2.092.657.81-.657 2.996 1.267 1.333 1.173-2.71.47.19-.8 3.232.47.665-.046 1.475 1.8 1.774c.646.105 1.3.2 1.956.277l.894-4.38.233.19v.81l-.373 3.93a47.727 47.727 0 006.243.206l.097-1.903-.33-6.37.33-.048.33 4.565.186 3.732c.87-.04 1.734-.1 2.584-.189l-.234-2.976-.33-3.566-.01-.007zm-23.723-8.75l-1.22-.286-.847.857-1.363 2.186v-.617l2.113-3.327 1.41.999-.093.188zm8.55.048l-3.803-1.57-.987.952-2.583-1.522-.517.524-.563-.429 1.786-2.804.377-.095 2.913 2.427.61-.523 1.504 1.282 1.266 1.569v.189h-.003zm.75-10.653a.756.756 0 01.423-.141c.187.759.234 1.569.284 2.52-.47-.76-.75-1.522-.704-2.379h-.003zm17.147 21.541l-1.22-5.705-.094-.952.424-.142.94 3.803.61 2.568-.657.428h-.003zm2.536-23.063c.47 0 .894.524.894 1.283l-.517.094-.75 1.664-.517.094c0-.999-.046-3.138.894-3.138l-.004.004zm-16.066 5.895v.81l.75 1.809h-.47L42.5 25.58l.847-1.093v-.429l-1.08-2.473c.703-.428 1.363-.428 2.02-.57-.284.428-.61.712-1.034.951.47.19.94 0 1.41 0l.234 3.425-1.364.429.004-.004zm-.94-5.706c.33-.286.94-.617 1.363-.617.233 0 .377.095.377.287-.564.047-1.174.142-1.737.334l-.003-.004zm3.476 5.089c0-1.616.33-3.138.424-4.707l.14-2.615-1.127-.665-1.457-.047c-.14-.095-.186-.19-.186-.334 0-.145 0-.334.376-.57.517-.335 1.034-.237 1.644-.237 2.066 0 4.18-.57 7.326-.57 1.55 0 2.677.142 3.854 1.14l1.456 1.283c.234.189.33.381.187.664l-.093.19-1.127-.476c-.563.759-1.033 1.95-.847 3.09l.517 2.997.987.334.046.381-.516.236-.14 1.522-.704-.81c-.516-.57-.986-.617-1.456-.665l1.033 1.95-.847 4.519-.47.047.564-4.707-1.597-1.903a8.484 8.484 0 00-2.443-.094l-1.127-2.234h-.187c-.093 0-.186.047-.233.334l.517 1.427c.093.236.14.476-.234.57l-1.126.237c-.187.047-.234.094-.284.236l-.046.189c-.047.236-.657.334-1.504.334-1.22 0-1.316-.19-1.316-1.046h-.004zM50.02 43.22l-.33-5.659-.893.476-.187.189-.233 2.804h-.284l.094-3.378 1.973-.904.187 6.468h-.33l.003.004zm3.57-10.7l.233-1.616-.61.141-.893 4.279h-.233l-.47-2.804c-.564-.334-1.364-.476-2.207-.476-.657 0-1.363.095-1.833.76h-.14c-.14 0-.234-.048-.284-.287-.05-.24-.046-.57-.046-.952.563-.236 1.363-.381 2.066-.381.377 0 .8.047 1.034.047.47 0 .563-.189.656-.523l.14-.57c-.563 0-1.926.047-2.396-.334 0-.382.186-.712.656-.712l1.174-.047c.47 0 .893-.095 1.363-.287l1.833-.665 1.08.523-.75 4.09-.376-.19.003.004zm4.273 13.748l.2.644a43.55 43.55 0 003.194-.668l-.294-.928-3.1.952zm5.45-7.086l-.376.475.186.952.75 3.327.19 1.508c.304-.098.604-.199.9-.303L63.87 40.94l-.563-1.758h.006zM62 43.889l.29 2.085c.38-.105.757-.213 1.13-.327l-.57-2.092-.847.334H62z" fill="#000"/></g><defs><clipPath id="clip0_1011_23608"><path fill="#fff" d="M0 0h100v80H0z"/></clipPath></defs></svg>