<svg width="51" height="278" viewBox="0 0 51 278" fill="none" xmlns="http://www.w3.org/2000/svg"><g clip-path="url(#clip0_978_23627)" fill="#fff"><path d="M10.463 267.311v7.676c0 1.588 1.246 2.846 2.82 2.846h24.201c1.574 0 2.82-1.258 2.82-2.846s-1.246-2.845-2.82-2.845h-4.132v-4.831c0-6.353-5.115-11.58-11.477-11.58-6.23.066-11.412 5.227-11.412 11.58zm17.314 0v4.831H16.104v-4.831c0-3.243 2.624-5.89 5.837-5.89 3.214 0 5.837 2.647 5.837 5.89zm13.183-38.513c-2.492 5.757-7.214 6.948-9.51 7.213-2.033-3.044-5.51-5.096-9.444-5.096-6.296 0-11.478 5.162-11.478 11.581v7.61c0 1.588 1.246 2.845 2.82 2.845H37.55c1.574 0 2.82-1.257 2.82-2.845 0-1.588-1.246-2.846-2.82-2.846h-4.132v-4.83c0-.331 0-.728-.066-1.059 3.804-.662 9.576-2.978 12.724-10.39.13-.397.262-.727.262-1.124 0-1.059-.656-2.118-1.705-2.581-1.443-.53-3.083.132-3.673 1.522zm-24.857 18.528v-4.83c0-3.243 2.623-5.89 5.837-5.89 3.214 0 5.837 2.647 5.837 5.89v4.83H16.103zm-5.64-32.16c0 7.742 5.837 12.771 14.888 12.771 9.05 0 14.888-5.029 14.888-12.771 0-7.742-5.837-12.772-14.888-12.772-9.051-.066-14.888 4.963-14.888 12.772zm24.2 0c0 6.419-6.492 7.147-9.312 7.147-2.82 0-9.313-.728-9.313-7.147 0-6.419 6.493-7.147 9.313-7.147 2.82 0 9.313.662 9.313 7.147zm-9.247-42.616l-5.313-4.632c-4.984-4.765-10.428-3.044-12.854-.728-.066.066-.131.066-.197.132a2.854 2.854 0 000 4.037 2.793 2.793 0 004 0l.066-.066c.722-.596 2.624-1.787 5.182.728l.13.132 4.723 4.103-9.641 8.338c-1.18.992-1.312 2.779-.328 3.97.984 1.191 2.755 1.324 3.935.331l10.297-8.867 10.297 8.867c.066.066.066.066.131.066l.066.066c.065 0 .065.067.13.067.066 0 .066.066.132.066s.066.066.131.066c.066 0 .066.066.131.066.066 0 .066 0 .132.066.065 0 .065.066.13.066.066 0 .066 0 .132.067.065 0 .065 0 .131.066h1.049c.066 0 .066 0 .132-.066h.13c.066 0 .066 0 .132-.067.066 0 .066 0 .131-.066.066 0 .066-.066.131-.066.066 0 .066-.066.131-.066.066 0 .066-.066.132-.066.065 0 .065-.066.13-.066.066 0 .066-.067.132-.067s.066-.066.131-.066c.066 0 .066-.066.131-.066.066 0 .066-.066.131-.066l.132-.133.065-.066c.066-.132.197-.264.262-.397 0 0 0-.066.066-.066l.197-.397v-.066c.066-.132.066-.265.131-.397v-.066c0-.133.066-.265.066-.464a2.362 2.362 0 012.36-2.382 2.362 2.362 0 012.362 2.382c0 1.589 1.246 2.846 2.82 2.846 1.574 0 2.82-1.257 2.82-2.846 0-4.433-3.607-8.073-8.001-8.073-2.624 0-4.92 1.258-6.428 3.243l-6.558-5.691 9.64-8.338c.657-.529.985-1.324.985-2.184 0-.662-.197-1.323-.656-1.853-.984-1.191-2.755-1.323-3.935-.331l-10.494 9zm-14.822-34.079c-.394 1.191.065 2.448 1.049 3.176l17.183 12.573H13.283c-1.574 0-2.82 1.257-2.82 2.845 0 1.589 1.246 2.846 2.82 2.846h24.2c1.247 0 2.296-.794 2.69-1.985.065-.265.13-.596.13-.861 0-.86-.393-1.72-1.18-2.316L21.94 142.176h15.544c1.574 0 2.82-1.257 2.82-2.845 0-1.588-1.246-2.846-2.82-2.846H13.283c-1.246 0-2.296.795-2.69 1.986zm0-136.252c-.394 1.19.065 2.448 1.049 3.176l17.183 12.573H13.283c-1.574 0-2.82 1.258-2.82 2.846s1.246 2.845 2.82 2.845h24.2c1.247 0 2.296-.794 2.69-1.985.065-.265.13-.596.13-.86 0-.86-.393-1.72-1.18-2.316L21.94 5.925h15.544c1.574 0 2.82-1.258 2.82-2.846S39.058.234 37.484.234H13.283c-1.246.066-2.296.86-2.69 1.985zm-.131 110.576c0 1.588 1.246 2.846 2.82 2.846h13.839v12.043H13.283c-1.574 0-2.82 1.258-2.82 2.846s1.246 2.845 2.82 2.845h24.201c1.574 0 2.82-1.257 2.82-2.845 0-1.588-1.246-2.846-2.82-2.846h-4.788v-12.043h4.788c1.574 0 2.82-1.258 2.82-2.846s-1.246-2.845-2.82-2.845h-24.2c-1.575 0-2.821 1.323-2.821 2.845zM23.58 92.414c0-5.757-4.263-9.794-10.297-9.794-1.574 0-2.82 1.257-2.82 2.845 0 1.589 1.246 2.846 2.82 2.846 4.066 0 4.722 2.58 4.722 4.103v8.338h-4.722c-1.574 0-2.82 1.257-2.82 2.845 0 1.588 1.246 2.846 2.82 2.846h24.201c1.574 0 2.82-1.258 2.82-2.846s-1.246-2.845-2.82-2.845h-4.788v-8.338c0-1.522.59-4.103 4.723-4.103 1.574 0 2.82-1.257 2.82-2.846 0-1.588-1.246-2.845-2.82-2.845-6.1 0-10.297 4.037-10.297 9.794v8.338H23.58v-8.338zM10.463 62.172v10.456a2.362 2.362 0 01-2.361 2.382 2.362 2.362 0 01-2.361-2.382v-3.904c0-1.589-1.246-2.846-2.82-2.846-1.574 0-2.82 1.257-2.82 2.846v4.168c.13 4.302 3.672 7.743 7.935 7.743 4.395 0 8.002-3.64 8.002-8.073v-7.61h3.935v5.558c0 5.625 4.525 10.257 10.166 10.257 5.64 0 10.165-4.566 10.165-10.257v-8.272c0-1.588-1.246-2.845-2.82-2.845h-24.2c-1.575 0-2.82 1.257-2.82 2.78zM30.14 75.076c-2.492 0-4.526-2.051-4.526-4.566v-5.492h9.051v5.492c0 2.515-2.033 4.566-4.525 4.566zM10.463 31.402v15.286c0 1.456 1.115 2.647 2.492 2.845.131 0 14.888 1.522 19.479 2.316 1.902.331 2.164 1.787 2.164 2.581v.066c0 1.588 1.246 2.846 2.82 2.846a2.853 2.853 0 002.82-2.581v-.463c0-2.581-1.377-7.147-6.82-8.074-3.607-.595-12.855-1.654-17.38-2.117v-9.86h22.036c1.575 0 2.82-1.257 2.82-2.845 0-1.589-1.245-2.846-2.82-2.846H13.218c-1.509 0-2.755 1.257-2.755 2.846zM33.68 197.696c0 2.118 1.706 3.838 3.805 3.838 2.098 0 3.804-1.72 3.804-3.838 0-2.117-1.706-3.838-3.804-3.838-2.1 0-3.804 1.721-3.804 3.838z"/></g><defs><clipPath id="clip0_978_23627"><path fill="#fff" transform="rotate(-90 139 139)" d="M0 0h278v51H0z"/></clipPath></defs></svg>