<svg width="278" height="51" viewBox="0 0 278 51" fill="none" xmlns="http://www.w3.org/2000/svg"><g clip-path="url(#clip0_330_4486)" fill="#FF3F00"><path d="M10.69 10.463H3.012c-1.588 0-2.846 1.246-2.846 2.82v24.201c0 1.574 1.258 2.82 2.846 2.82s2.845-1.246 2.845-2.82v-4.132h4.831c6.353 0 11.58-5.115 11.58-11.477-.066-6.23-5.227-11.412-11.58-11.412zm0 17.314H5.857V16.103h4.831c3.243 0 5.89 2.624 5.89 5.837 0 3.214-2.647 5.837-5.89 5.837zM49.202 40.96c-5.757-2.492-6.948-7.214-7.213-9.51 3.044-2.033 5.096-5.509 5.096-9.444 0-6.296-5.162-11.477-11.58-11.477h-7.61c-1.589 0-2.846 1.246-2.846 2.82v24.2c0 1.575 1.257 2.821 2.845 2.821 1.589 0 2.846-1.246 2.846-2.82v-4.132h4.83c.331 0 .728 0 1.06-.066.661 3.804 2.977 9.576 10.389 12.724.397.131.727.262 1.125.262 1.058 0 2.117-.656 2.58-1.705.53-1.443-.132-3.083-1.522-3.673zM30.674 16.103h4.83c3.243 0 5.89 2.624 5.89 5.837 0 3.214-2.647 5.838-5.89 5.838h-4.83V16.103zm32.16-5.64c-7.742 0-12.772 5.837-12.772 14.888 0 9.05 5.03 14.888 12.772 14.888s12.772-5.837 12.772-14.888c.066-9.051-4.963-14.888-12.772-14.888zm0 24.2c-6.419 0-7.147-6.492-7.147-9.312 0-2.82.728-9.313 7.147-9.313 6.419 0 7.147 6.493 7.147 9.313 0 2.82-.662 9.313-7.147 9.313zm42.616-9.247l4.632-5.312c4.765-4.984 3.044-10.428.728-12.855-.066-.065-.066-.13-.132-.196a2.854 2.854 0 00-4.037 0 2.793 2.793 0 000 4l.066.066c.596.721 1.787 2.623-.728 5.181l-.132.131-4.103 4.722-8.338-9.64c-.992-1.181-2.779-1.312-3.97-.329-1.191.984-1.324 2.755-.331 3.936l8.867 10.296-8.867 10.297c-.066.066-.066.066-.066.132l-.066.065c0 .066-.067.066-.067.131 0 .066-.066.066-.066.132 0 .065-.066.065-.066.13 0 .066-.066.066-.066.132 0 .065 0 .065-.066.131 0 .066-.066.066-.066.131 0 .066 0 .066-.067.131 0 .066 0 .066-.066.131v1.049c0 .066 0 .066.066.132v.131c0 .066 0 .066.067.131 0 .066 0 .066.066.132 0 .065.066.065.066.13 0 .066.066.066.066.132s.066.066.066.131c0 .066.066.066.066.131 0 .066.067.066.067.131 0 .066.066.066.066.132 0 .065.066.065.066.13 0 .066.066.066.066.132l.132.131.067.066c.132.065.264.197.397.262 0 0 .066 0 .066.066l.397.196h.066c.132.066.265.066.397.132h.066c.133 0 .265.065.463.065a2.362 2.362 0 012.383 2.361 2.362 2.362 0 01-2.383 2.361c-1.588 0-2.845 1.246-2.845 2.82 0 1.575 1.257 2.82 2.846 2.82 4.433 0 8.073-3.607 8.073-8 0-2.624-1.258-4.92-3.243-6.428l5.691-6.559 8.338 9.641c.529.656 1.324.984 2.184.984.662 0 1.323-.197 1.853-.656 1.191-.983 1.323-2.754.331-3.935l-9-10.493zm34.079-14.822c-1.191-.393-2.448.066-3.176 1.05L123.78 28.826V13.283c0-1.574-1.257-2.82-2.845-2.82-1.589 0-2.846 1.246-2.846 2.82v24.201c0 1.246.794 2.296 1.985 2.69.265.065.596.13.861.13.86 0 1.72-.393 2.316-1.18l12.573-17.184v15.544c0 1.574 1.257 2.82 2.845 2.82 1.588 0 2.846-1.246 2.846-2.82v-24.2c0-1.247-.795-2.296-1.986-2.69zm136.252 0c-1.191-.393-2.448.066-3.176 1.05l-12.573 17.183V13.283c0-1.574-1.257-2.82-2.846-2.82-1.588 0-2.845 1.246-2.845 2.82v24.201c0 1.246.794 2.296 1.985 2.69.265.065.596.13.86.13.861 0 1.721-.393 2.316-1.18l12.573-17.184v15.544c0 1.574 1.258 2.82 2.846 2.82s2.845-1.246 2.845-2.82v-24.2c-.066-1.247-.86-2.296-1.985-2.69zm-110.576-.131c-1.588 0-2.846 1.246-2.846 2.82v13.839h-12.043V13.283c0-1.574-1.258-2.82-2.846-2.82s-2.845 1.246-2.845 2.82v24.201c0 1.574 1.257 2.82 2.845 2.82 1.588 0 2.846-1.246 2.846-2.82v-4.788h12.043v4.788c0 1.574 1.258 2.82 2.846 2.82s2.845-1.246 2.845-2.82v-24.2c0-1.575-1.323-2.821-2.845-2.821zm20.381 13.117c5.757 0 9.794-4.263 9.794-10.297 0-1.574-1.257-2.82-2.845-2.82-1.589 0-2.846 1.246-2.846 2.82 0 4.066-2.581 4.722-4.103 4.722h-8.338v-4.722c0-1.574-1.257-2.82-2.845-2.82-1.588 0-2.846 1.246-2.846 2.82v24.201c0 1.574 1.258 2.82 2.846 2.82s2.845-1.246 2.845-2.82v-4.788h8.338c1.522 0 4.103.59 4.103 4.723 0 1.574 1.257 2.82 2.846 2.82 1.588 0 2.845-1.246 2.845-2.82 0-6.1-4.037-10.297-9.794-10.297h-8.338V23.58h8.338zm30.242-13.117h-10.456a2.362 2.362 0 01-2.382-2.361 2.362 2.362 0 012.382-2.361h3.905c1.588 0 2.845-1.246 2.845-2.82 0-1.575-1.257-2.82-2.845-2.82h-4.169c-4.302.13-7.743 3.672-7.743 7.935 0 4.394 3.64 8.002 8.073 8.002h7.61v3.935h-5.558c-5.625 0-10.257 4.525-10.257 10.166 0 5.64 4.566 10.165 10.257 10.165h8.272c1.588 0 2.845-1.246 2.845-2.82V13.283c0-1.574-1.257-2.82-2.779-2.82zm-12.904 19.675c0-2.492 2.051-4.525 4.566-4.525h5.492v9.05h-5.492c-2.515 0-4.566-2.032-4.566-4.524zm43.674-19.675h-15.286c-1.456 0-2.647 1.115-2.845 2.492 0 .131-1.522 14.888-2.316 19.479-.331 1.902-1.787 2.164-2.581 2.164h-.066c-1.588 0-2.846 1.246-2.846 2.82a2.853 2.853 0 002.581 2.82h.463c2.581 0 7.147-1.377 8.074-6.82.595-3.607 1.654-12.855 2.117-17.38h9.86v22.036c0 1.575 1.257 2.82 2.845 2.82 1.589 0 2.846-1.245 2.846-2.82V13.218c0-1.509-1.257-2.755-2.846-2.755zM80.304 33.68c-2.118 0-3.838 1.705-3.838 3.804 0 2.099 1.72 3.804 3.838 3.804 2.117 0 3.838-1.705 3.838-3.804 0-2.099-1.72-3.804-3.838-3.804z"/></g><defs><clipPath id="clip0_330_4486"><path fill="#fff" d="M0 0h278v51H0z"/></clipPath></defs></svg>