<svg width="291" height="265" viewBox="0 0 291 265" fill="none" xmlns="http://www.w3.org/2000/svg"><path d="M68.627 44.967c10.483 39.107 22.717 86.972 37.113 124.85l6.895-3.063L75.5 40.372l-6.873 4.573v.022zm20.209 5.867c.195.906.39 1.79.584 2.696a890.88 890.88 0 011.6 7.334c.799 3.624 1.577 7.226 2.377 10.85.972 4.422 1.924 8.823 2.896 13.245l3.178 14.495c1.059 4.875 2.14 9.75 3.199 14.646l2.983 13.655a9881.68 9881.68 0 012.528 11.54c.606 2.761 1.211 5.5 1.816 8.261.281 1.316.541 2.632.865 3.926 0 .065.021.108.043.173.173.755 1.318.431 1.146-.324-.195-.906-.39-1.79-.584-2.696a925.056 925.056 0 01-1.6-7.334c-.799-3.624-1.577-7.226-2.377-10.85-.973-4.422-1.924-8.823-2.897-13.245l-3.177-14.495c-1.059-4.875-2.14-9.75-3.199-14.646L95.234 74.41c-.843-3.84-1.686-7.68-2.529-11.54-.605-2.762-1.21-5.501-1.816-8.262-.28-1.316-.54-2.632-.864-3.926 0-.065-.022-.108-.043-.173-.173-.755-1.319-.431-1.146.324zm10.57 2.308c.195.884.368 1.769.562 2.631a829.78 829.78 0 001.513 7.183c.735 3.538 1.47 7.054 2.226 10.592.908 4.292 1.795 8.606 2.702 12.899.995 4.724 1.989 9.448 2.962 14.193.994 4.767 2.01 9.556 3.004 14.323.93 4.444 1.859 8.909 2.788 13.352l2.356 11.239 1.686 8.089c.26 1.272.498 2.567.8 3.839 0 .065.022.108.043.173.152.755 1.319.431 1.146-.324-.195-.884-.367-1.769-.562-2.631a826.44 826.44 0 00-1.513-7.183c-.735-3.538-1.47-7.054-2.226-10.592-.908-4.292-1.794-8.606-2.702-12.899-.995-4.724-1.989-9.448-2.962-14.193-.994-4.767-1.988-9.556-3.004-14.323-.929-4.444-1.859-8.909-2.788-13.352-.778-3.754-1.578-7.485-2.356-11.239l-1.686-8.088c-.26-1.273-.497-2.567-.8-3.84 0-.065-.022-.108-.043-.173-.152-.755-1.319-.431-1.146.324zm9.187 1.531c.194.863.367 1.726.562 2.61l1.491 7.054 2.205 10.419c.908 4.249 1.815 8.498 2.702 12.77.994 4.637 1.967 9.296 2.961 13.934.994 4.681 1.988 9.383 2.983 14.064.929 4.379 1.859 8.779 2.788 13.158l2.356 11.044c.562 2.675 1.124 5.328 1.708 8.003.259 1.251.497 2.524.799 3.775 0 .043.022.108.044.172.151.755 1.318.432 1.145-.323-.194-.863-.367-1.726-.562-2.61l-1.491-7.054-2.205-10.418c-.908-4.25-1.816-8.499-2.702-12.77-.994-4.638-1.967-9.297-2.961-13.935-.994-4.68-1.989-9.383-2.983-14.064-.929-4.379-1.859-8.78-2.788-13.158a1973.73 1973.73 0 00-2.356-11.044 1036.4 1036.4 0 00-1.708-8.003c-.259-1.25-.497-2.523-.8-3.775a.649.649 0 00-.043-.172c-.151-.755-1.318-.431-1.145.323zM117 56.572c.195.84.389 1.66.562 2.502l1.556 6.794c.757 3.322 1.535 6.666 2.292 9.988.929 4.077 1.858 8.153 2.81 12.23 1.015 4.465 2.053 8.93 3.069 13.417 1.037 4.508 2.075 9.017 3.091 13.525.972 4.206 1.924 8.412 2.896 12.619l2.443 10.634c.583 2.567 1.167 5.112 1.751 7.679.281 1.208.518 2.438.821 3.624 0 .043.021.108.043.151.173.755 1.319.431 1.146-.324-.195-.841-.389-1.661-.562-2.502l-1.557-6.795c-.756-3.321-1.534-6.665-2.291-9.987-.929-4.077-1.859-8.153-2.81-12.23l-3.069-13.417-3.091-13.525-2.896-12.619c-.822-3.537-1.621-7.075-2.443-10.634-.583-2.567-1.167-5.112-1.751-7.68-.281-1.207-.518-2.437-.821-3.623a.41.41 0 00-.043-.15c-.173-.756-1.319-.432-1.146.323zm10.332 1.143c.173.82.368 1.64.541 2.459.497 2.243.972 4.465 1.469 6.708.714 3.3 1.449 6.58 2.162 9.88l2.658 12.1c.973 4.423 1.946 8.823 2.897 13.245l2.918 13.331c.908 4.163 1.816 8.304 2.723 12.468.779 3.516 1.535 7.032 2.313 10.526.562 2.524 1.103 5.026 1.665 7.55.259 1.186.497 2.394.778 3.58 0 .044.021.108.043.151.173.755 1.318.432 1.146-.323-.173-.82-.368-1.639-.541-2.459-.497-2.243-.973-4.465-1.47-6.709-.713-3.3-1.448-6.579-2.161-9.879l-2.659-12.101c-.972-4.422-1.945-8.822-2.896-13.244L136 91.667c-.908-4.163-1.816-8.305-2.724-12.468-.778-3.516-1.534-7.032-2.313-10.526-.562-2.524-1.102-5.026-1.664-7.55-.259-1.186-.497-2.394-.778-3.58a.41.41 0 00-.043-.152c-.173-.755-1.319-.431-1.146.324zm9.188 2.286c.173.798.367 1.596.54 2.395.497 2.178.973 4.357 1.47 6.535.713 3.215 1.448 6.429 2.161 9.643l2.637 11.777c.973 4.293 1.924 8.607 2.897 12.899.972 4.336 1.945 8.693 2.918 13.029.908 4.055 1.815 8.089 2.723 12.144.778 3.43 1.535 6.838 2.313 10.268.562 2.459 1.102 4.918 1.664 7.377.26 1.165.498 2.351.779 3.494 0 .043.021.108.043.151.173.755 1.318.432 1.145-.323-.173-.798-.367-1.596-.54-2.395-.497-2.178-.973-4.357-1.47-6.535-.713-3.214-1.448-6.428-2.161-9.642l-2.637-11.778c-.973-4.293-1.924-8.607-2.897-12.899-.972-4.336-1.945-8.693-2.918-13.029-.908-4.055-1.815-8.089-2.723-12.144-.778-3.43-1.535-6.838-2.313-10.268-.562-2.459-1.102-4.918-1.664-7.377-.26-1.165-.498-2.351-.779-3.494a.392.392 0 00-.043-.151c-.173-.755-1.318-.432-1.145.323zm10.72 2.309c.173.754.324 1.53.497 2.286l1.341 6.234 1.988 9.232c.821 3.753 1.621 7.507 2.443 11.281.886 4.142 1.794 8.262 2.68 12.403.908 4.164 1.794 8.305 2.702 12.468.843 3.883 1.686 7.744 2.507 11.627.713 3.279 1.427 6.557 2.118 9.814.519 2.352 1.016 4.703 1.535 7.054.238 1.122.454 2.243.735 3.343 0 .044 0 .087.021.151.173.755 1.319.432 1.146-.323-.173-.755-.324-1.532-.497-2.287-.454-2.07-.908-4.163-1.34-6.233-.67-3.085-1.34-6.148-1.989-9.233-.821-3.753-1.621-7.506-2.442-11.281-.886-4.142-1.794-8.262-2.681-12.403-.907-4.163-1.794-8.305-2.701-12.468-.843-3.883-1.686-7.744-2.508-11.626-.713-3.28-1.426-6.558-2.118-9.815-.519-2.351-1.016-4.703-1.535-7.054-.237-1.121-.454-2.243-.713-3.343 0-.043 0-.086-.022-.151-.172-.755-1.318-.432-1.145.323h-.022zm9.164 1.51c.173.754.325 1.51.498 2.264l1.361 6.148c.67 3.02 1.34 6.061 1.989 9.08.821 3.69 1.621 7.4 2.442 11.088l2.659 12.101c.908 4.077 1.794 8.176 2.702 12.252.843 3.818 1.686 7.615 2.507 11.433.714 3.214 1.405 6.406 2.119 9.62.518 2.308 1.015 4.638 1.534 6.946.238 1.1.454 2.2.735 3.3 0 .043 0 .087.022.151.173.755 1.318.432 1.145-.323l-.497-2.265-1.362-6.148c-.67-3.02-1.34-6.061-1.988-9.081-.822-3.689-1.621-7.399-2.443-11.087l-2.658-12.101c-.908-4.077-1.794-8.176-2.702-12.252-.843-3.819-1.686-7.615-2.508-11.433-.713-3.214-1.404-6.406-2.118-9.62-.519-2.308-1.016-4.638-1.534-6.946-.238-1.1-.454-2.2-.735-3.3 0-.044 0-.087-.022-.151-.173-.755-1.318-.432-1.146.323zm8.82 1.92c.173.733.346 1.466.497 2.22.454 2.007.908 3.991 1.383 5.998.67 2.955 1.362 5.931 2.032 8.887.821 3.602 1.643 7.204 2.486 10.806.908 3.97 1.815 7.917 2.723 11.886.908 3.99 1.816 7.959 2.745 11.95l2.573 11.173 2.161 9.405 1.556 6.795c.238 1.078.454 2.157.735 3.214 0 .043 0 .086.022.129.173.755 1.318.432 1.145-.323-.172-.734-.345-1.467-.497-2.222-.454-2.006-.908-3.99-1.383-5.997-.67-2.955-1.362-5.931-2.032-8.887-.821-3.602-1.643-7.204-2.486-10.806-.907-3.969-1.815-7.917-2.723-11.886a2475.54 2475.54 0 00-2.745-11.95c-.865-3.732-1.708-7.463-2.572-11.174-.714-3.127-1.449-6.277-2.162-9.404l-1.556-6.795c-.238-1.079-.454-2.157-.735-3.214 0-.043 0-.086-.022-.13-.173-.754-1.318-.43-1.145.324zm9.554 1.897c.173.69.324 1.38.497 2.071.454 1.898.886 3.775 1.34 5.673.67 2.783 1.318 5.587 1.989 8.37.799 3.408 1.621 6.816 2.42 10.224l2.659 11.195c.886 3.775 1.794 7.528 2.68 11.303l2.508 10.591c.713 2.955 1.405 5.911 2.096 8.866.519 2.135 1.016 4.292 1.535 6.428.238 1.014.454 2.027.713 3.02 0 .043 0 .086.022.129.173.755 1.34.431 1.145-.323-.172-.691-.324-1.381-.497-2.071-.454-1.898-.886-3.775-1.34-5.673-.67-2.783-1.318-5.587-1.988-8.37l-2.421-10.224-2.659-11.195c-.886-3.775-1.794-7.528-2.68-11.303-.843-3.538-1.686-7.054-2.508-10.591-.691-2.956-1.405-5.91-2.096-8.866-.519-2.135-1.016-4.293-1.535-6.428-.238-1.014-.454-2.028-.713-3.02 0-.043 0-.086-.022-.13-.173-.754-1.34-.43-1.145.324zm9.035 2.287l.497 2.027 1.362 5.5c.67 2.697 1.34 5.415 1.989 8.111l2.442 9.923c.886 3.624 1.794 7.248 2.68 10.893.908 3.667 1.794 7.334 2.702 10.979.843 3.409 1.686 6.838 2.529 10.246.713 2.869 1.405 5.738 2.118 8.629.519 2.07 1.016 4.163 1.535 6.234.238.992.454 1.984.735 2.955 0 .043 0 .086.022.129.194.755 1.34.432 1.145-.323-.173-.669-.324-1.359-.497-2.028l-1.362-5.501-1.988-8.11c-.822-3.3-1.621-6.622-2.443-9.923-.886-3.623-1.794-7.247-2.68-10.893-.908-3.667-1.794-7.334-2.702-10.98-.843-3.407-1.686-6.837-2.529-10.245-.713-2.87-1.405-5.738-2.118-8.628-.519-2.071-1.016-4.163-1.535-6.234-.237-.993-.454-1.985-.735-2.956 0-.043 0-.086-.021-.129-.195-.755-1.34-.431-1.146.324zm9.337 1.164c.173.67.324 1.316.497 1.985.454 1.79.886 3.58 1.34 5.393.67 2.653 1.319 5.306 1.989 7.96.8 3.235 1.621 6.47 2.421 9.706.886 3.559 1.772 7.118 2.658 10.699.887 3.581 1.794 7.161 2.681 10.742l2.485 10.009c.714 2.826 1.405 5.651 2.119 8.477.497 2.028 1.016 4.055 1.513 6.083.237.971.454 1.941.713 2.89 0 .044 0 .087.022.13.194.755 1.34.431 1.145-.324-.173-.668-.324-1.316-.497-1.984l-1.34-5.393c-.67-2.653-1.319-5.306-1.989-7.959-.799-3.236-1.621-6.472-2.42-9.707-.887-3.559-1.773-7.118-2.659-10.699l-2.68-10.742-2.486-10.01-2.118-8.476c-.498-2.028-1.016-4.056-1.513-6.083-.238-.97-.454-1.942-.714-2.89 0-.044 0-.087-.021-.13-.195-.755-1.34-.431-1.146.323zm9.554 1.899c.151.647.324 1.294.475 1.92.433 1.747.865 3.472 1.319 5.22l1.945 7.7c.8 3.15 1.578 6.299 2.378 9.448l2.594 10.289 2.615 10.44 2.443 9.686c.691 2.739 1.383 5.479 2.075 8.24l1.491 5.888c.238.928.432 1.877.713 2.805 0 .043 0 .086.022.129.194.755 1.34.431 1.145-.324l-.475-1.919a447.879 447.879 0 00-1.319-5.22l-1.945-7.701c-.8-3.149-1.578-6.299-2.378-9.448l-2.593-10.289-2.616-10.44-2.442-9.686-2.075-8.24-1.492-5.888c-.237-.928-.432-1.877-.713-2.804 0-.044 0-.087-.022-.13-.194-.755-1.34-.431-1.145.324zm9.726 3.041c.152.604.303 1.208.476 1.812.432 1.64.843 3.3 1.275 4.94l1.881 7.312c.756 2.977 1.534 5.975 2.291 8.952.843 3.257 1.664 6.514 2.507 9.771.843 3.279 1.686 6.579 2.529 9.858.778 3.063 1.578 6.126 2.356 9.189l1.989 7.766c.475 1.855.951 3.731 1.426 5.586.238.885.433 1.791.692 2.654 0 .043 0 .064.022.107.194.755 1.34.432 1.145-.323a54.966 54.966 0 00-.475-1.812c-.433-1.639-.843-3.3-1.276-4.94l-1.88-7.312c-.778-2.977-1.535-5.975-2.291-8.952-.843-3.257-1.665-6.514-2.508-9.771-.843-3.279-1.686-6.579-2.529-9.858-.778-3.063-1.577-6.126-2.356-9.19-.67-2.588-1.34-5.176-1.988-7.765-.476-1.855-.951-3.731-1.427-5.586-.238-.885-.432-1.79-.691-2.653 0-.044 0-.065-.022-.108-.195-.755-1.34-.432-1.146.323zm9.166 0c.411 1.79.843 3.602 1.254 5.393.994 4.27 1.988 8.563 2.983 12.834l3.609 15.531c1.038 4.508 2.097 8.995 3.134 13.503.498 2.157.908 4.379 1.513 6.515v.086c.173.755 1.341.431 1.146-.324-.411-1.79-.843-3.602-1.254-5.392-.994-4.271-1.988-8.564-2.982-12.835l-3.61-15.53c-1.038-4.509-2.097-8.995-3.134-13.504-.497-2.157-.908-4.379-1.513-6.514v-.086c-.173-.755-1.341-.432-1.146.323z" fill="#B0B4B5"/><path d="M236.877 86.36a6841.48 6841.48 0 01-29.31-3.947c-10.483-1.424-20.966-2.847-31.449-4.292-10.722-1.467-21.421-2.934-32.142-4.4-10.483-1.425-20.966-2.87-31.45-4.293a12613.263 12613.263 0 00-30.044-4.056c-1.19-.15-2.357-.323-3.545-.474-.973-.13-1.794.927-1.794 1.79 0 1.079.82 1.661 1.794 1.79 9.77 1.295 19.54 2.61 29.31 3.948 10.483 1.424 20.966 2.847 31.449 4.293 10.721 1.466 21.421 2.933 32.142 4.4 10.483 1.424 20.966 2.869 31.449 4.292 10.008 1.36 20.016 2.718 30.045 4.056 1.189.15 2.356.323 3.545.474.973.13 1.794-.927 1.794-1.79 0-1.079-.821-1.661-1.794-1.79z" fill="#B0B4B5"/><path d="M50.383 29.89c-1.427 4.12-2.248 8.95.108 12.618 2.205 3.43 7.133 4.81 10.786 3.02 1.102-.54 2.096-1.316 3.263-1.683 1.168-.367 2.66-.194 3.307.842.325.496.433 1.186.93 1.488.454.28 1.06.13 1.578-.022l6.095-1.876c.8-2.61-.41-5.609-2.637-7.183-2.399-1.704-5.728-1.812-8.408-.626-.389.173-.8.324-1.21.345-2.4.194-2.637-2.459-1.86-4.141.887-1.855 2.573-3.495 1.492-5.846-.562-1.208-1.664-2.092-2.94-2.437A10.966 10.966 0 0058.533 24c-3.74-.194-7.09 2.308-8.15 5.89zM215.37 206.595c-3.069-1.186-6.636-.928-9.532.69-2.896 1.618-5.015 4.552-5.706 7.83-.67 3.257.086 6.752 1.902 9.491 2.658 4.034 7.63 6.407 12.364 5.76 4.733-.647 9.013-4.314 10.288-8.995 1.276-4.681-.54-10.138-4.452-12.899l-4.885-1.856.021-.021z" fill="#C13F37"/><path d="M109.867 153.51c1.47 4.357 2.68 8.779 3.632 13.265 2.096-.668 4.15-1.466 6.117-2.437.216-.108.453-.237.562-.453.108-.237.021-.518-.065-.777l-3.675-11.259-6.571 1.639v.022zm110.669 58.542c4.064-6.773 2.248-16.458-3.998-21.29-2.94-2.287-6.571-3.495-10.116-4.616a597.107 597.107 0 00-80.537-19.629l-1.578 8.455 69.427 15.855 26.824 21.247-.022-.022z" fill="#606060"/><path d="M114.256 166.797c.605-2.071 1.297-4.271 3.005-5.565 2.507-1.877 6.376-.928 8.408 1.467 1.902 2.243 2.421 5.63 1.167 8.304-1.275 2.675-4.323 4.422-7.241 4.034-2.94-.388-5.469-2.933-5.706-5.889l.367-2.351zm-30.002 32.831c-3.07-1.187-6.636-.928-9.532.69-2.875 1.618-5.015 4.551-5.707 7.83-.67 3.257.087 6.752 1.903 9.491 2.658 4.034 7.63 6.407 12.363 5.759 4.734-.647 9.014-4.314 10.289-8.995 1.297-4.702-.54-10.138-4.453-12.899l-4.885-1.855.022-.021z" fill="#C13F37"/><path d="M103.664 173.872a1999.094 1999.094 0 00-36.248 35.333c2.4 1.704 5.036 3.494 7.976 3.343 3.329-.172 5.966-2.739 8.257-5.155l25.83-27.136c.367-.388.735-.776.864-1.294.173-.669-.129-1.381-.475-1.985-1.103-2.006-3.329-3.925-5.469-3.106h-.756.021zm9.684 2.481c7.565 2.61 80.688 20.859 86.438 23.167s10.937 7.334 11.218 13.524c3.459-.345 6.895-.711 10.354-1.057.627-6.341-3.242-12.446-8.365-16.221-5.123-3.775-11.391-5.651-17.53-7.398a890.033 890.033 0 00-80.3-18.81l-1.837 6.795h.022z" fill="#B0B4B5"/><path d="M211.068 216.927c-3.177-.819-6.7-.151-9.381 1.769-2.68 1.92-4.474 5.091-4.776 8.412-.303 3.301.864 6.687 2.982 9.211 3.091 3.71 8.301 5.501 12.948 4.314 4.647-1.165 8.451-5.306 9.208-10.116.756-4.811-1.686-10.009-5.901-12.317l-5.08-1.294v.021zM66.27 214.123c-3.069-1.186-6.635-.927-9.532.69-2.896 1.618-5.014 4.552-5.706 7.831-.67 3.257.087 6.751 1.902 9.491 2.659 4.033 7.63 6.406 12.364 5.759 4.734-.647 9.013-4.314 10.289-8.995 1.296-4.702-.54-10.138-4.453-12.899l-4.885-1.855.022-.022z" fill="#C13F37"/><path d="M67.416 209.205c.065 5.263-2.637 11.411-5.814 15.617-.303.41-.627.841-.649 1.337-.043.777.67 1.445 1.448 1.596.757.151 1.556-.086 2.291-.366 6.896-2.61 11.889-9.599 12.126-16.933-2.485-1.553-5.663-1.963-8.473-1.122l-.907-.108-.022-.021zM235.581 81.378l-.39 6.169-.929 14.819-1.102 17.925c-.325 5.156-.649 10.289-.951 15.445l-.325 5.133c-.043.799-.173 1.618-.151 2.416v.108l1.794-1.79-3.48.259c-3.156.237-6.333.474-9.489.733-4.669.367-9.359.712-14.028 1.079l-17.119 1.315a6132.5 6132.5 0 00-18.762 1.446c-6.311.474-12.623.97-18.934 1.445l-17.725 1.359c-4.971.388-9.943.755-14.914 1.143-3.567.281-7.155.539-10.721.82-1.686.129-3.394.172-5.08.388h-.216c.584.431 1.167.884 1.729 1.316-.972-3.43-1.967-6.838-2.939-10.268-2.335-8.153-4.69-16.329-7.025-24.482-2.853-9.923-5.685-19.824-8.538-29.746-2.442-8.52-4.885-17.04-7.328-25.583-.8-2.826-1.62-5.651-2.42-8.477-.39-1.316-.692-2.696-1.146-3.99 0-.065-.021-.108-.043-.173l-.454 1.747c1.167-.928 2.334-1.877 3.502-2.804-.584.15-1.168.302-1.751.453 11.758 2.286 23.538 4.573 35.297 6.86 11.759 2.286 23.539 4.572 35.297 6.859 11.759 2.286 23.539 4.573 35.297 6.86 11.759 2.286 23.539 4.572 35.298 6.859l4.496.884c1.469.28 3.004.712 4.495.884 0 0 .498.043.26 0-.151-.021-.065-.064-.043-.064.021 0 .043.021.086.043.13.021.238.108.368.15.432.195.864.367 1.296.562 2.4 1.057 4.821 2.114 7.22 3.17.173.087.346.151.519.238.886.388 1.923.259 2.464-.647.454-.755.259-2.071-.649-2.46-2.183-.949-4.388-1.92-6.571-2.868-.951-.41-1.88-.82-2.831-1.23-1.016-.431-2.183-.54-3.242-.755-1.6-.302-3.199-.625-4.821-.927-12.774-2.48-25.57-4.983-38.345-7.464-12.774-2.48-25.57-4.983-38.344-7.463-12.775-2.48-25.571-4.983-38.345-7.464-6.355-1.23-12.732-2.48-19.087-3.71-1.599-.302-3.198-.625-4.82-.927-.756-.151-1.491-.302-2.248-.432-.843-.172-1.945-.56-2.81-.431-.67.108-1.21.626-1.729 1.057-.605.474-1.188.949-1.794 1.423l-1.016.82c-.475.389-.626 1.187-.453 1.747.972 3.43 1.966 6.838 2.94 10.268 2.334 8.154 4.69 16.329 7.024 24.483 2.853 9.922 5.685 19.823 8.538 29.745 2.442 8.521 4.885 17.041 7.327 25.583 1.19 4.142 2.27 8.348 3.567 12.468 0 .065.021.108.043.173.195.711.951 1.38 1.729 1.315l3.48-.259c3.156-.237 6.333-.474 9.489-.733 4.669-.367 9.359-.712 14.028-1.078 5.707-.432 11.413-.885 17.119-1.316 6.247-.475 12.494-.949 18.762-1.445 6.312-.475 12.623-.971 18.935-1.446l17.724-1.359 14.914-1.143c3.567-.28 7.155-.539 10.721-.82 1.686-.129 3.394-.237 5.08-.388h.216c1.016-.086 1.729-.755 1.794-1.79l.389-6.169.93-14.819 1.102-17.926c.324-5.155.649-10.289.951-15.444.151-2.502.454-5.048.476-7.571v-.108c.065-.97-.865-1.79-1.794-1.79-1.016 0-1.73.82-1.794 1.79z" fill="#B0B4B5"/><path d="M165.482 66.559v80.717c0 .949.822 1.833 1.794 1.79.973-.043 1.795-.798 1.795-1.79V66.559c0-.95-.822-1.834-1.795-1.79-.972.042-1.794.797-1.794 1.79z" fill="#606060"/><path d="M235.234 104.739H89.852c-2.313 0-2.313 3.58 0 3.58h145.382c2.313 0 2.313-3.58 0-3.58z" fill="#B0B4B5"/><path d="M106.258 179.481c-3.696-2.891-4.323-7.679-1.643-11.303.994-1.338 1.967-2.481 2.68-2.826 1.751-.82 3.956-1.122 5.75-.388 2.097.863 3.156 2.912 3.847 4.832 1.146 3.192 1.6 7.118-1.188 9.447-2.032 1.726-5.361 1.985-7.998 1.079-.432-.151-.929-.453-1.427-.841h-.021z" fill="#C13F37"/><path d="M206.94 203.942c5.145-.798 10.397-1.704 15.585-1.186.346 3.235 1.686 11.432 1.145 14.646-.54 3.214-2.118 6.385-4.841 8.175-.887.583-1.859.993-2.832 1.402-2.831 1.187-5.987 2.395-8.862 1.381-.843-.302-1.708-.841-1.427-2.265.13-.69.498-1.316.995-1.812.129-.129.259-.259.367-.388 3.026-3.236 3.826-7.96 2.248-12.101l-2.378-7.83v-.022z" fill="#B0B4B5"/><path d="M228.318 75.165c-.346.734-.713 1.467-1.059 2.179-.324.669-.67 1.445-.432 2.157.194.604.735 1.014 1.254 1.359a29.635 29.635 0 008.602 3.947c1.513.41 3.243.69 4.475-.69.951-1.057 1.08-2.631.475-3.904-1.297-2.74-4.236-3.56-6.938-4.228l-4.496-1.143c-.649-.151-1.297.194-1.492.841l-.389-.496v-.022z" fill="#C13F37"/><path d="M108.333 168.695c-1.253.798-1.815 2.395-1.426 3.818.432 1.596 2.075 2.589 3.696 2.33 1.405-.237 2.702-1.402 3.026-2.804.324-1.402-.367-2.761-1.578-3.473-1.297-.777-3.004-.798-4.193.194-.216.194-.195.582 0 .777.216.215.54.194.778 0a.734.734 0 01.238-.151c.043-.022.108-.065.151-.087.065-.043.087-.043.108-.043.108-.043.216-.065.346-.108.065 0 .108-.021.173-.043h.13a2.77 2.77 0 011.383.237c.821.346 1.491 1.079 1.491 2.028 0 .992-.799 1.941-1.729 2.308-1.059.41-2.269 0-2.81-1.057-.475-.971-.129-2.351.8-2.955.584-.367.043-1.316-.54-.949l-.044-.022zm4.497-3.106c2.291.389 4.258 2.33 4.539 4.66.043.302.216.539.54.539.26 0 .584-.259.541-.539-.325-2.783-2.529-5.242-5.339-5.716-.281-.044-.584.086-.67.388-.065.259.086.625.389.668z" fill="#561E1C"/><path d="M117.605 166.172c.692-1.079 2.162-1.424 3.351-1.036 1.232.41 1.815 1.791 1.577 2.999-.129.712-.497 1.38-1.08 1.769-.238.172-.346.474-.195.755.151.237.497.366.757.194 1.47-.993 2.053-3.02 1.426-4.66-.324-.841-.929-1.553-1.772-1.919a4.283 4.283 0 00-2.594-.281 3.68 3.68 0 00-2.421 1.64c-.389.582.562 1.143.951.56v-.021zm-31.86 39.884c1.103 1.596 1.254 3.753.39 5.5-.865 1.769-2.681 2.804-4.648 2.826-1.124 0-2.205-.281-3.134-.928-.584-.388-1.124.54-.54.949 1.923 1.295 4.495 1.381 6.549.389 2.14-1.036 3.372-3.279 3.415-5.609 0-1.294-.346-2.588-1.08-3.667-.39-.582-1.34-.021-.952.561v-.021zm121.174 16.286c-1.989.28-3.761 1.639-4.626 3.429-.929 1.92-.821 4.185.152 6.062 1.88 3.645 6.938 5.004 10.223 2.437 1.73-1.337 2.875-3.581 2.594-5.802-.086-.691-1.189-.691-1.102 0 .216 1.682-.497 3.343-1.686 4.529a5.397 5.397 0 01-4.496 1.489c-3.566-.453-6.16-4.142-4.993-7.636a5.232 5.232 0 014.193-3.452c.692-.107.389-1.143-.281-1.056h.022zm-5.015-3.668c1.859-2.2 4.539-3.818 7.479-2.847.67.216.951-.841.281-1.057-3.286-1.078-6.442.626-8.538 3.128-.454.539.324 1.316.778.776zm36.227-139.108s-.043-.065 0 .021c.022.043.065.086.087.13.021.043.043.064.065.107 0 .022.064.173.021.044.022.086.065.15.087.237 0 .043 0 .086.021.13v.581c0 .043 0 .108-.021.15 0 .087-.044.173-.065.26 0 .043-.022.086-.043.129-.044.13.043-.108 0 .022-.044.086-.065.15-.13.237-.043.086-.108.15-.151.237 0 .022.064-.065 0 .022l-.109.108c-.064.064-.129.107-.194.172.086-.086 0 0-.022 0-.043.022-.065.043-.108.065-.043.021-.065.043-.108.065-.043.021-.108.043-.021 0-.087.043-.195.064-.281.086-.281.064-.454.388-.39.668a.56.56 0 00.671.389c.951-.238 1.642-1.014 1.945-1.92.302-.928.151-1.963-.476-2.718-.194-.216-.583-.194-.778 0-.216.216-.194.54 0 .777zM62.768 37.74a18.543 18.543 0 00-4.971 4.099c-.195.215-.216.56 0 .776.194.194.583.216.778 0a17.38 17.38 0 014.755-3.925c.605-.346.065-1.295-.562-.95zm8.712 1.122s.194.065.28.086c.022 0 .044 0 .065.022-.043 0-.043 0 0 0 .044 0 .087.043.13.065.173.086.346.194.497.302-.065-.065.065.043.065.043.043.021.065.065.108.086.065.065.151.13.216.216.152.172.195.215.303.41.043.086.086.15.13.237.021.043.043.086.064.151 0 0 .065.15.044.065.086.172.13.366.173.56 0 .044 0 .087.021.13v.043c0 .108 0 .194.022.302v.518c-.043.28.086.582.389.668.26.065.627-.086.67-.388.367-1.963-.908-4.055-2.853-4.573-.67-.172-.973.863-.281 1.057h-.043zm-1.168 1.467l1.535 2.136c.086.107.172.215.324.258.13.044.302 0 .41-.064.238-.151.368-.496.195-.755-.519-.712-1.016-1.424-1.535-2.136-.086-.108-.173-.215-.324-.259-.13-.043-.303 0-.41.065-.238.151-.368.496-.195.755zm-18.718-2.804c-.714.863-.865 2.178-.216 3.149.627.906 1.815 1.359 2.896 1.035.281-.086.476-.388.39-.668-.087-.28-.368-.475-.671-.389a.401.401 0 00-.151.044c-.022 0-.195.021-.065 0h-.454a5.676 5.676 0 01-.281-.065c-.022 0-.173-.065-.065 0-.043 0-.086-.043-.13-.065a1.452 1.452 0 01-.237-.15c-.044-.044-.044-.044 0 0 0 0-.044-.022-.044-.044-.043-.022-.064-.065-.108-.086-.043-.044-.064-.087-.108-.108-.086-.086.044.065-.021-.043-.044-.087-.108-.151-.152-.238-.065-.107 0 .065 0-.043 0-.043-.043-.108-.043-.15a.399.399 0 00-.043-.152v-.539c0-.108.043-.194.086-.302 0 0 .065-.151 0-.043l.065-.13.065-.129c0-.021.043-.043.043-.086-.043.043-.043.043 0 0 .173-.216.238-.561 0-.777-.194-.194-.583-.237-.778 0l.022-.021z" fill="#561E1C"/><path d="M207.979 205.71a231.5 231.5 0 0113.833-2.308c.303-.043.454-.409.389-.668-.086-.324-.389-.41-.67-.389a231.5 231.5 0 00-13.833 2.308c-.692.13-.389 1.187.281 1.057zm-140.218 4.25c3.2 0 6.312 1.316 8.582 3.581.497.496 1.275-.281.778-.777a13.324 13.324 0 00-9.36-3.883c-.713 0-.713 1.079 0 1.1v-.021z" fill="#606060"/><path d="M63.741 218.566c-1.967-.604-4.063.087-5.533 1.467a6.128 6.128 0 00-1.88 5.479c.691 4.293 5.77 7.787 9.986 6.062 2.204-.906 3.76-3.02 3.934-5.393.043-.69-1.038-.69-1.103 0-.108 1.726-1.21 3.279-2.702 4.12-1.75.992-3.934.69-5.62-.281-3.026-1.704-4.82-5.888-2.29-8.779 1.21-1.38 3.09-2.2 4.884-1.618.67.216.951-.841.281-1.057h.043z" fill="#561E1C"/><path d="M101.481 177.691c-.151 1.919 1.383 3.839 3.307 4.098.281.043.605-.065.67-.388.065-.259-.086-.626-.389-.669a2.93 2.93 0 01-.584-.129c-.043 0-.086-.044-.151-.044.108.044-.043 0-.065-.021-.086-.043-.173-.086-.259-.151a1.718 1.718 0 01-.259-.173c-.087-.064.043.043-.044-.043a.168.168 0 01-.086-.086 4.098 4.098 0 01-.432-.432c-.022-.021-.065-.086-.022-.021-.022-.043-.065-.086-.086-.13a1.58 1.58 0 01-.152-.258c-.043-.087-.086-.173-.129-.281-.065-.151.021.086-.022-.065 0-.043-.043-.086-.043-.151-.022-.086-.065-.194-.087-.28 0-.043-.021-.108-.021-.151 0-.022-.022-.173 0-.065a2.772 2.772 0 010-.604c.021-.28-.26-.56-.541-.539-.324 0-.519.237-.54.539l-.065.044zm17.336-4.099s.086.108.151.151c-.022-.043.065.065 0 0 0 .021.043.065.065.086.043.065.065.13.108.173 0 .021.022.043.043.064-.065-.129 0 0 0 .022.043.129.087.259.108.388 0 .065 0 .065 0 0v.518c0-.065 0 .129 0 0v.108a1.373 1.373 0 01-.129.388c.021-.065.021-.043 0 0a.158.158 0 01-.044.086c-.043.065-.065.108-.108.173-.043.043 0 .021 0 0-.021.021-.043.043-.065.086-.043.065-.108.108-.173.173a.546.546 0 000 .776c.238.216.541.194.779 0 1.102-.992 1.124-2.912.064-3.947a.569.569 0 00-.778 0c-.194.216-.216.561 0 .776l-.021-.021zM71.566 49.41c1.361-.518 2.745-1.035 4.107-1.553.28-.108.475-.367.389-.669-.065-.259-.39-.474-.67-.388-1.362.518-2.745 1.036-4.107 1.553-.281.108-.476.367-.39.669.066.259.39.474.67.388zm34.563 101.77c-1.232.992-.735 3.02.454 3.796a1.94 1.94 0 001.189.324c.281 0 .562-.237.54-.539 0-.281-.238-.561-.54-.54h-.281c-.043 0-.087 0-.13-.043 0 0-.043 0-.065-.021h.043c-.021-.022-.086-.043-.108-.065-.021 0-.064-.043-.086-.043 0 0-.043-.022-.043-.043-.044-.043-.044-.022.043.021-.043-.064-.13-.108-.195-.172-.021-.022-.064-.065-.086-.108-.065-.065.065.108 0-.022l-.13-.194c0-.043-.043-.086-.065-.129-.064-.13 0 .064 0-.022-.021-.086-.064-.172-.086-.259 0-.043 0-.086-.022-.108 0-.15 0-.043 0 0v-.388c0-.151 0 .087 0 0 0-.064.022-.151.044-.215 0-.065.086-.13 0 0a.444.444 0 01.064-.108c0-.043.044-.065.065-.108-.043.043.087-.13 0 0l.195-.194c.216-.173.194-.583 0-.777-.238-.216-.541-.194-.778 0l-.022-.043zM74.96 49.777c0 .474.28.906.69 1.164.195.13.433.195.67.216h.347c.13 0 .216-.064.324-.108.108-.043.216-.215.26-.323a.543.543 0 00-.066-.41.647.647 0 00-.324-.259h-.151s-.195 0-.281.065a.365.365 0 00.108-.043.631.631 0 01-.195.043h.152-.216.15c-.085 0-.172-.043-.237-.065.043 0 .087.043.13.065-.065-.043-.151-.065-.216-.13.043.022.065.065.108.087a.655.655 0 01-.173-.173c.021.043.065.065.086.108-.043-.065-.086-.108-.108-.173 0 .044.043.087.065.13l-.065-.194v.064a.62.62 0 00-.151-.388c-.087-.086-.26-.172-.39-.15a.519.519 0 00-.54.54l.022-.066zm159.41 55.76s.129.108.173.173c.021.021.043.064.064.086-.043-.065 0-.022 0 0 .044.065.087.129.13.216 0 .043.043.064.043.107.022.044.044.087 0 0 .065.151.108.302.13.453 0 .065 0 .087 0 0v.583c0-.065 0 .129 0 0v.108c0 .086-.043.151-.065.237 0 .043-.021.065-.043.108-.043.129.022-.065 0 0-.065.151-.151.28-.238.41.065-.108 0 0-.021.021 0 .022-.044.043-.065.065l-.087.086s-.129.108-.021.022c-.238.172-.368.474-.195.755.13.237.519.366.757.194.713-.539 1.102-1.338 1.124-2.222.021-.82-.281-1.682-.93-2.222-.216-.194-.562-.215-.778 0-.194.194-.216.583 0 .777l.022.043zm.908-19.047s.086.043.086.065c0 0-.086-.087-.022 0 .044.043.087.086.152.13 0 .02.043.042.065.064-.044-.065.064.065 0 0 .043.065.064.108.108.172.021.044.064.108.086.151-.022-.086.043.087 0 0 0 .022 0 .065.022.087 0 .064.043.108.043.172 0 .043 0 .065.022.108v.411s-.022.151-.044.172c0 .065-.021.108-.043.173v.043c0 .022 0 .022 0 0 0-.043 0-.043 0 0v.022c-.022.064-.065.108-.108.172l-.043.065c-.195.216-.238.56 0 .777.194.194.583.237.778 0 .951-1.1.713-2.89-.497-3.689-.238-.15-.605-.065-.757.194a.557.557 0 00.195.755l-.043-.043zM81.163 65.782c-1.146 1.532-.238 3.97 1.556 4.508a.55.55 0 00.67-.388c.086-.28-.108-.582-.39-.669a.303.303 0 01-.129-.043c-.13-.043.065.043-.022 0-.086-.043-.15-.086-.237-.13-.044-.02-.065-.042-.108-.064.108.065 0 0-.022-.021-.065-.065-.13-.108-.194-.173a.468.468 0 01-.087-.108c-.086-.108.065.086-.022-.022-.043-.064-.108-.15-.15-.215-.044-.086-.087-.151-.13-.237.064.107 0 0 0-.044a.306.306 0 00-.044-.129l-.065-.259c0-.043 0-.086-.021-.13-.022-.107 0 .109 0-.02v-.54c0-.043 0-.086.021-.13 0-.064.065-.15.065-.237 0-.043-.043.065 0-.021 0-.043.043-.087.065-.108.043-.087.108-.173.151-.237.173-.238.044-.605-.194-.755-.281-.173-.562-.044-.757.194l.044-.022zm11.002 38.698c-.972 1.423-.432 3.559 1.06 4.4a.56.56 0 00.756-.194.557.557 0 00-.195-.755c-.064-.043-.15-.086-.216-.129-.043-.044.065.064 0 0-.043-.022-.065-.065-.108-.087-.065-.043-.108-.108-.151-.172-.022-.022-.043-.065-.065-.087-.043-.043.043.065 0 0-.086-.151-.173-.28-.26-.431 0 .022.044.065 0 0 0-.043-.02-.065-.043-.108a3.656 3.656 0 00-.064-.237c0-.043 0-.065-.022-.108 0 0-.022-.151 0-.065v-.561c0-.107 0 .044 0 0 .043-.15.065-.301.13-.452 0 .043.043-.108 0 0 0-.044.043-.065.043-.108.043-.087.086-.151.151-.238.173-.237.044-.604-.194-.755-.26-.151-.584-.043-.757.195l-.065-.108zm117.002 118.746c-.713.388-.843 1.251-.54 1.941.367.841 1.296 1.122 2.161 1.036.951-.108 1.881-.497 2.724-.885a14.453 14.453 0 002.356-1.402c3.134-2.351 5.144-5.867 5.49-9.793.216-2.33-.216-4.681-1.146-6.816-.281-.647-1.232-.087-.951.539 1.383 3.149 1.427 6.903.043 10.073-1.21 2.805-3.48 5.091-6.225 6.407-.756.367-1.621.733-2.442.82-.346.021-.778 0-.973-.302-.13-.195-.173-.518.043-.648.627-.323.065-1.272-.562-.949l.022-.021zm-136.283-9.534c.562 2.998-.821 6.233-3.329 7.959-.583.388-.021 1.337.54.949 2.962-2.006 4.475-5.673 3.827-9.189-.13-.69-1.19-.388-1.06.281h.022zm10.052-8.629c4.02-3.99 8.062-7.981 12.083-11.971.497-.497-.281-1.273-.779-.777-4.02 3.991-8.062 7.981-12.082 11.972-.498.496.28 1.272.778.776zm116.677-8.908c3.307-.065 6.592 1.51 8.581 4.185.411.561 1.362 0 .951-.561-2.205-2.977-5.793-4.789-9.511-4.724-.691 0-.713 1.1 0 1.1h-.021zM87.842 106.076a527.7 527.7 0 007.047 24.957 423.62 423.62 0 002.205 6.989c.216.669 1.275.389 1.059-.28-2.66-8.219-5.102-16.523-7.371-24.849-.649-2.352-1.254-4.724-1.88-7.097-.174-.669-1.233-.388-1.06.28z" fill="#606060"/><path d="M52.126 121.552c-4.5-2.384-9.684-2.134-12.362 1.535-5.42 7.425-6.754 21.646-6.608 22.672.147 1.043 3.752 1.891 3.752 1.891s6.413-20.095 8.545-22.705c2.132-2.61 6.673-3.385 6.673-3.385v-.008z" fill="#AF52DB"/><path d="M40.61 136.596c-2.09-.63-4.255-1.3-5.761-1.818-.13.534-.26 1.059-.374 1.584 1.562.533 3.654 1.18 5.599 1.77.179-.509.35-1.018.537-1.528v-.008zm-1.968-11.78c2.604.953 4.345 1.769 5.55 2.456.26-.574.496-1.058.708-1.462-1.229-.695-2.938-1.487-5.371-2.392-.31.444-.603.913-.887 1.398zm4.068 6.06c-2.026-.566-4.329-1.18-6.16-1.576a31.32 31.32 0 00-.545 1.527c1.579.348 3.792.921 6.128 1.576.195-.525.39-1.026.578-1.519v-.008zm2.474-10.819a7.991 7.991 0 00-3.165 1.01c1.839.177 4.288.953 6.12 1.826a13.3 13.3 0 011.936-.8c-1.302-.776-3.1-1.519-4.89-2.028v-.008zm-6.803 23.068c-1.742-.574-3.508-1.228-4.81-1.85-.09.606-.163 1.171-.22 1.68 1.343.606 2.971 1.196 4.525 1.713.155-.468.326-.985.513-1.535l-.008-.008z" fill="#AF52DB"/><path d="M48.188 124.719c8.813 3.628 6.502 15.707 5.794 27.48-.114 1.891 3.67 2.044 3.67 2.044 5.38-30.704-7.39-32.853-9.465-29.524z" fill="#D2F0F7"/><path d="M58.198 154.009c4.126-14.092 1.587-31.108-7.569-32.918-9.155-1.81-12.5 16.305-13.72 26.551 0 0 1.928.622 2.88.072 0 0 4.126-25.201 10.653-23.448 10.547 2.836 5.583 26.575 5.363 28.523-.032 1.196 2.165 1.81 2.393 1.22z" fill="#fff"/><path d="M40.655 190.564c-8.065 2.012-9.074 3.636-10.328 16.564-1.253-12.928-2.27-14.552-10.327-16.564 8.065-2.012 9.074-3.636 10.327-16.564 1.254 12.928 2.271 14.552 10.328 16.564zM158 25.5c-6.247 1.518-7.029 2.744-8 12.5-.971-9.756-1.759-10.982-8-12.5 6.247-1.518 7.029-2.744 8-12.5.971 9.756 1.759 10.982 8 12.5z" fill="#FCB750"/><path d="M141.922 210.633c3.442 3.614 3.063 7.504.024 10.482-3.046 2.971-8.096 2.011-12.079 5.852-2.311 2.23-4.137 4.419-4.994 3.874-.856-.546-1.575-3.54.34-8.895 2.286-6.413 4.912-10.149 8.815-11.451 1.867-.618 6.286-1.546 7.886.138h.008z" fill="#1CC73E"/><path d="M129.463 226.967c0-.106.04-.212.121-.293 2.19-2.116 4.727-2.832 6.965-3.467 1.931-.545 3.757-1.066 5.115-2.385a.405.405 0 01.573.009.418.418 0 010 .577c-1.502 1.465-3.417 2.011-5.454 2.588-2.254.635-4.581 1.294-6.625 3.272a.413.413 0 01-.574-.008.423.423 0 01-.113-.285l-.008-.008z" fill="#fff"/><path d="M142.31 216.672c-1.495-1.546-5.826 5.078-4.743 5.314 1.083.236 6.957-3.019 4.743-5.314z" fill="#fff" opacity=".25"/><path d="M142.585 211.39c-.202-.252-.42-.513-.663-.765-1.608-1.685-6.019-.757-7.886-.138-3.903 1.302-6.529 5.029-8.815 11.45-1.915 5.355-1.196 8.35-.34 8.895a.56.56 0 00.307.082c-.848-6.348 4.501-17.156 12.04-18.352 0 0-1.156 3.459 0 3.581.598.065 4.557-4.761 5.365-4.753h-.008z" fill="#1CC73E"/><path d="M152.758 204.31c-5.381.546-9.647 6.161-9.647 6.161 1.478 2.295 1.349 5.607 1.349 5.607-1.236-1.595-2.376-2.832-2.885-2.783-.872.081-3.926 2.995-4.355 2.856-.606-.203.243-2.962 1.471-4.15-2.642-.033-5.656-1.367-5.656-1.367 5.349-1.693 8.589-1.148 8.589-1.148 2.86-6.006 10.577-6.486 10.577-6.486.921.627.549 1.318.549 1.318l.008-.008z" fill="#1C7F36"/><path d="M206.881 33.55c3.117-3.877 7.005-3.979 10.331-1.304 3.326 2.675 3.031 7.835 7.337 11.335 2.5 2.034 4.896 3.583 4.468 4.506-.428.924-3.293 2.005-8.821.752-6.621-1.497-10.647-3.655-12.434-7.396-.856-1.79-2.337-6.084-.888-7.89l.007-.003z" fill="#E04419"/><path d="M212.789 32.422c-1.334 1.682 5.765 5.186 5.855 4.082.09-1.105-3.876-6.568-5.855-4.082z" fill="#fff" opacity=".25"/><path d="M207.548 32.798c-.229.235-.449.485-.667.752-1.45 1.805.032 6.1.887 7.889 1.784 3.734 5.81 5.892 12.434 7.396 5.529 1.253 8.394.172 8.822-.752.044-.1.053-.2.042-.315-6.153 1.626-17.5-2.386-19.661-9.765 0 0 3.563.725 3.533-.442-.013-.603-5.286-3.968-5.383-4.767l-.007.004z" fill="#942B13"/><path d="M199.24 23.517c1.237 5.31 7.331 8.867 7.331 8.867 2.076-1.753 5.354-2.038 5.354-2.038-1.411 1.434-2.484 2.711-2.375 3.222.188.86 3.457 3.549 3.38 3.997-.12.633-2.948.114-4.288-.964.315 2.647-.621 5.81-.621 5.81-2.364-5.13-2.245-8.43-2.245-8.43-6.297-2.116-7.771-9.76-7.771-9.76.495-1 1.231-.711 1.231-.711l.004.007z" fill="#1C7F36"/><path d="M200.011 26.483c-.513-.888-.929-1.85-1.16-2.882a.403.403 0 01.299-.483.408.408 0 01.484.304c1.05 4.486 5.788 7.747 6.898 8.459 2.145-1.652 5.213-1.93 5.353-1.944a.396.396 0 01.281.082c1.784-.11 3.609.547 5.297 1.903 1.639 1.319 2.426 3.167 3.26 5.129.916 2.168 1.872 4.407 4.085 6.202.497.409 1 .795 1.465 1.165 2.162 1.693 3.596 2.801 3.109 3.834a.407.407 0 01-.538.198.416.416 0 01-.201-.542c.2-.444-1.573-1.836-2.873-2.842a109.24 109.24 0 01-1.477-1.168c-2.368-1.922-3.407-4.367-4.315-6.52-.788-1.867-1.533-3.626-3.018-4.808-1.649-1.322-3.412-1.902-5.099-1.69a.394.394 0 01-.283-.07c-.902.135-3.198.586-4.747 1.894a.396.396 0 01-.462.041c-.206-.115-4.184-2.48-6.357-6.243l-.001-.019z" fill="#fff"/><path d="M235.293 181.454c1.122 3.342 3.842 5.688 6.935 5.125 6.261-1.141 13.712-7.64 14.128-8.225.424-.593-.981-2.738-.981-2.738s-12.8 7.025-15.115 7.317c-2.314.293-4.963-1.483-4.963-1.483l-.004.004z" fill="#AF52DB"/><path d="M248.247 179.397a123.556 123.556 0 012.024 3.66c.32-.206.636-.407.943-.616a128.032 128.032 0 00-1.965-3.558c-.333.17-.661.344-.998.51l-.004.004zm-4.63 6.85c-.852-1.72-1.337-2.96-1.614-3.879-.404.164-.754.294-1.052.396.285.935.765 2.147 1.554 3.762a14.94 14.94 0 001.112-.279zm.848-4.981c.747 1.25 1.61 2.657 2.34 3.729.336-.159.669-.329 1.001-.507-.626-.927-1.463-2.27-2.323-3.713-.348.171-.685.329-1.014.487l-.004.004zm-6.4 4.249c.629.482 1.33.824 2.07 1.003-.838-.967-1.697-2.524-2.2-3.835a9.304 9.304 0 01-1.353-.522c.283 1.01.831 2.24 1.487 3.35l-.004.004zm14.414-8.33c.6 1.118 1.174 2.289 1.531 3.222.334-.262.64-.511.912-.739-.385-.944-.921-2.016-1.454-3.017-.301.161-.633.339-.989.526v.008z" fill="#AF52DB"/><path d="M238.78 181.743c-2.692-6.023 4.228-10.982 10.198-16.551.958-.895-.867-2.776-.867-2.776-17.342 12.84-11.96 20.008-9.331 19.327z" fill="#D2F0F7"/><path d="M247.725 162.273c-8.79 5.103-15.631 14.852-11.9 20.126 3.731 5.275 14.048-2.22 19.546-6.778 0 0-.671-1.232-1.411-1.411 0 0-14.088 10.678-16.527 6.685-3.939-6.453 9.872-15.996 10.911-16.869.587-.584-.223-1.94-.619-1.753z" fill="#fff"/></svg>