<svg width="433" height="404" viewBox="0 0 433 404" fill="none" xmlns="http://www.w3.org/2000/svg"><g clip-path="url(#clip0_22_1491)"><path d="M304.505 173.106c-.838-11.361 9.717-16.483 11.548-11.821 1.945 4.953-8.089 8.12-11.548 11.821z" fill="#F09535"/><path d="M309.298 163.935c.643 1.608 5.014-2.246 3.817-2.901-1.196-.654-4.403 1.439-3.817 2.901z" fill="#F09535" opacity=".3"/><path d="M305.018 168.088s-.073 0-.106-.016a.405.405 0 01-.285-.501c.977-3.442 3.199-6.31 5.957-7.684a.416.416 0 01.546.178.407.407 0 01-.179.541c-2.556 1.269-4.623 3.951-5.534 7.183a.4.4 0 01-.391.291l-.008.008z" fill="#fff"/><path d="M316.297 162.578c-.992 3.272-8.04 6.617-11.637 6.755a16.242 16.242 0 00-.155 3.765c3.141-3.37 11.735-6.294 11.792-10.528v.008z" fill="#C97324"/><path d="M82.136 264.709c-11.622-4.622-21.42 3.991-17.628 7.28 4.029 3.499 12.948-5.309 17.628-7.28z" fill="#F09535"/><path d="M63.71 270.583c.082.525.334 1.002.798 1.406 4.028 3.499 12.948-5.309 17.627-7.28-4.67.097-14.827 8.654-18.425 5.874z" fill="#C97324"/><path d="M65.623 268.902c.765 1.051 5.322-1.454 3.85-2.181-1.465-.719-4.656 1.083-3.85 2.181z" fill="#F09535" opacity=".3"/><path d="M68.537 265.258a.387.387 0 01-.367-.234.406.406 0 01.196-.541c2.75-1.301 6.038-1.794 9.27-1.382a.407.407 0 01.35.452.404.404 0 01-.457.348c-3.068-.396-6.2.073-8.813 1.309a.443.443 0 01-.171.04l-.008.008z" fill="#fff"/><path d="M122.143 319.677c-2.059.622.448 2.974-.382 3.749-1.872 1.762-3.012 5.155.992 5.753 4.135.622 6.145-11.554-.61-9.51v.008z" fill="#F09535"/><path d="M122.753 328.315c-1.725-.259-2.49-1.043-2.661-1.988-.203 1.309.423 2.521 2.661 2.86 2.312.348 3.956-3.296 3.777-6.221-.155 2.731-1.693 5.664-3.777 5.349z" fill="#C97324"/><path d="M122.932 320.388c-.83.541 2.173 1.681 2.287 1.301.114-.38-.797-2.27-2.287-1.301z" fill="#F09535" opacity=".3"/><path d="M352.559 180.184c-1.798-4.638.057-8.056 4.037-9.599 3.979-1.543 8.301 1.293 13.485-.687 3.011-1.147 5.55-2.448 6.136-1.616.586.833.09 3.854-3.76 8.016-4.606 4.985-8.488 7.393-12.622 7.07-1.978-.154-6.437-1.018-7.276-3.176v-.008z" fill="#E04419"/><path d="M354.537 174.504c.789 1.996 7.373-2.4 6.462-3.03-.912-.63-7.626.073-6.462 3.03z" fill="#fff" opacity=".25"/><path d="M352.242 179.231c.09.315.196.63.318.953.838 2.157 5.298 3.022 7.275 3.175 4.126.324 8.008-2.084 12.623-7.07 3.849-4.161 4.345-7.183 3.759-8.015a.605.605 0 00-.252-.194c-1.668 6.141-10.816 13.962-18.286 12.144 0 0 2.408-2.723 1.383-3.28-.529-.291-6.079 2.594-6.82 2.278v.009z" fill="#942B13"/><path d="M340.051 181.784c5.216 1.584 11.344-1.915 11.344-1.915-.48-2.675.912-5.656.912-5.656.537 1.939 1.107 3.507 1.603 3.668.838.267 4.802-1.22 5.152-.929.488.42-1.376 2.61-2.979 3.232 2.45 1.05 4.72 3.442 4.72 3.442-5.623-.517-8.423-2.27-8.423-2.27-4.981 4.395-12.338 1.85-12.338 1.85-.618-.929 0-1.422 0-1.422h.009z" fill="#1C7F36"/><path d="M343.005 182.6c-1.025 0-2.067-.121-3.076-.436a.403.403 0 01-.269-.501.407.407 0 01.505-.267c4.411 1.333 9.603-1.139 10.775-1.745-.358-2.683.936-5.479.993-5.608a.397.397 0 01.211-.202c.798-1.6 2.279-2.852 4.297-3.636 1.961-.759 3.955-.517 6.071-.258 2.336.29 4.753.581 7.414-.437.602-.226 1.188-.468 1.742-.687 2.547-1.026 4.224-1.712 4.875-.775a.408.408 0 01-.098.565.416.416 0 01-.57-.097c-.285-.395-2.376.445-3.898 1.067-.553.226-1.147.461-1.75.695-2.848 1.091-5.485.767-7.804.477-2.01-.251-3.907-.485-5.673.21-1.969.767-3.353 2.004-4.012 3.571a.394.394 0 01-.203.21c-.334.849-1.091 3.062-.733 5.058a.393.393 0 01-.195.42c-.203.122-4.24 2.384-8.586 2.384l-.016-.008z" fill="#fff"/><path d="M161.573 331.652c3.613-3.443 7.503-3.063 10.482-.025 2.97 3.046 2.01 8.096 5.851 12.08 2.23 2.311 4.419 4.137 3.874 4.993-.545.857-3.54 1.576-8.895-.339-6.413-2.287-10.148-4.913-11.451-8.815-.618-1.867-1.546-6.287.139-7.886v-.008z" fill="#1CC73E"/><path d="M177.906 344.111a.416.416 0 01-.293-.121c-2.116-2.19-2.832-4.727-3.467-6.965-.545-1.931-1.066-3.757-2.384-5.115a.404.404 0 01.008-.573.42.42 0 01.578 0c1.465 1.502 2.01 3.417 2.588 5.454.635 2.254 1.294 4.581 3.271 6.625a.412.412 0 01-.008.574.42.42 0 01-.285.113l-.008.008z" fill="#fff"/><path d="M167.612 331.264c-1.547 1.495 5.078 5.825 5.314 4.743.236-1.083-3.019-6.957-5.314-4.743z" fill="#fff" opacity=".25"/><path d="M162.33 330.989c-.253.202-.513.42-.765.663-1.685 1.608-.757 6.019-.139 7.886 1.302 3.902 5.03 6.528 11.451 8.815 5.355 1.915 8.35 1.196 8.895.339a.56.56 0 00.081-.307c-6.348.849-17.155-4.5-18.352-12.039 0 0 3.459 1.156 3.581 0 .065-.598-4.761-4.557-4.752-5.365v.008z" fill="#1CC73E"/><path d="M155.25 320.816c.545 5.382 6.16 9.648 6.16 9.648 2.295-1.479 5.608-1.35 5.608-1.35-1.595 1.237-2.832 2.376-2.784 2.885.082.873 2.995 3.927 2.857 4.355-.204.606-2.962-.242-4.151-1.47-.032 2.642-1.367 5.656-1.367 5.656-1.693-5.349-1.147-8.589-1.147-8.589-6.006-2.861-6.487-10.577-6.487-10.577.627-.921 1.319-.55 1.319-.55l-.008-.008zm164.539-73.277c1.831-11.498 9.448-18.616 12.053-18.487 5.452.267 5.664 5.818 6.176 5.276.513-.541 2.426-3.595 5.298-3.014 3.345.679 3.052 3.257 3.972 2.756.92-.501 5.933-2.279 7.031-.873 1.099 1.398-.643 8.823-4.329 12.104-4.965 4.411-9.408.784-9.994 2.238-.586 1.446-3.532 6.302-7.422 6.335-2.621.024-4.85-1.479-7.064-1.285-2.206.186-6.258-1.673-5.721-5.05z" fill="#1C7F36"/><path d="M353.88 238.748c.813-2.521 1.001-4.832.439-5.551-1.099-1.398-6.112.38-7.031.873-.92.501-.627-2.085-3.972-2.756-2.873-.581-4.785 2.481-5.298 3.014-.513.541-.724-5.009-6.177-5.276 1.669 1.277-4.492 10.973.594 12.645.228.073.448.129.659.17-1.155 2.569-4.59 9.663-7.593 10.722 1.067-.089 2.141.21 3.256.549 2.352-2.747 4.834-8.072 4.834-11.199 4.248.396 6.079-5.268 6.877-5.542.862-.307.61 5.098 4.069 4.395 3.459-.703 6.372-5.284 8.04-5.607 1.669-.324 1.303 3.563 1.303 3.563z" fill="#1CC73E"/><path d="M354.319 233.197c-1.098-1.398-6.112.38-7.031.872-.92.501-.627-2.084-3.972-2.755-2.872-.582-4.785 2.481-5.298 3.014-.512.541-.724-5.01-6.177-5.276 2.54.509-2.685 10.601 1.872 10.972 2.792.227 3.443-5.219 7.479-6.262 1.945-.501.863 3.774 2.873 4.396 2.783.856 5.884-5.042 9.204-4.897 1.473.065.985 3.539.611 5.487.814-2.521 1.001-4.832.439-5.551z" fill="#1CC73E"/><path d="M319.789 247.943h-.065a.409.409 0 01-.342-.461c1.863-11.691 9.538-18.826 12.394-18.826h.082c1.538.307 1.172 2.44.74 4.904-.366 2.109-.781 4.501.033 5.535.244.315.61.493 1.107.534 1.115.088 1.871-.986 2.815-2.36 1.083-1.559 2.304-3.321 4.525-3.894a.405.405 0 11.204.783c-1.929.501-3.06 2.133-4.061 3.572-1.009 1.454-1.97 2.844-3.557 2.698-.724-.056-1.294-.339-1.684-.84-1.026-1.317-.602-3.781-.187-6.165.309-1.794.659-3.83-.041-3.967-2.043-.113-9.693 6.375-11.573 18.156a.4.4 0 01-.398.339l.008-.008z" fill="#fff"/><path d="M76.715 306.176c1.49 4.848 5.33 8.306 9.831 7.595 9.115-1.447 20.191-10.561 20.826-11.393.635-.84-1.31-3.967-1.31-3.967s-18.84 9.712-22.218 10.059c-3.377.348-7.137-2.294-7.137-2.294h.008z" fill="#AF52DB"/><path d="M95.572 303.622c1.033 1.915 2.083 3.911 2.783 5.333.472-.283.936-.566 1.392-.857a169.938 169.938 0 00-2.702-5.179l-1.465.703h-.008zm-6.991 9.712c-1.164-2.505-1.815-4.298-2.173-5.631-.586.226-1.099.404-1.546.533.374 1.349 1.017 3.111 2.1 5.462a19.969 19.969 0 001.619-.364zm1.432-7.134c1.034 1.826 2.222 3.878 3.231 5.438a51.95 51.95 0 001.473-.695c-.863-1.35-2.026-3.313-3.215-5.414-.512.234-1.009.453-1.489.671zm-9.457 5.898c.896.711 1.889 1.228 2.955 1.511-1.172-1.414-2.352-3.684-3.028-5.591a13.218 13.218 0 01-1.937-.792c.375 1.462 1.107 3.256 2.01 4.872zm21.241-11.53c.822 1.632 1.612 3.329 2.084 4.686.496-.363.944-.711 1.351-1.034-.521-1.373-1.245-2.933-1.978-4.387-.447.226-.936.468-1.457.727v.008z" fill="#AF52DB"/><path d="M81.753 306.701c-3.654-8.751 6.592-15.667 15.47-23.497 1.425-1.252-1.139-4.024-1.139-4.024-25.676 17.938-18.172 28.418-14.331 27.521z" fill="#D2F0F7"/><path d="M95.54 278.962c-12.949 7.062-23.276 20.887-18.092 28.595 5.184 7.708 20.451-2.755 28.614-9.138 0 0-.92-1.794-1.986-2.077 0 0-20.866 14.924-24.235 9.098-5.437-9.413 14.974-22.713 16.52-23.933.871-.824-.244-2.804-.822-2.537v-.008z" fill="#fff"/><path d="M77.87 214.387c-2.22-2.15-8.536 2.771-6.526 4.961 8.252 8.993 18.409 25.363 20.443 31.762 2.035 6.4 7.65 2.012 7.65.525-.024-7.587-9.57-25.621-21.566-37.248z" fill="#F09535"/><path d="M98.64 252.969c-5.07 2.205-4.94-6.828-7.349-8.953-2.58-2.279-2.759-6.003-5.07-8.209-2.515-2.4-.781-4.719-5.282-7.579-2.32-1.471-3.28-4.089-4.956-5.834-1.294-1.341-3.337-2.432-4.98-4.46-.115.517-.025 1.01.341 1.406 8.252 8.993 18.409 25.363 20.444 31.762 1.562 4.913 5.224 3.466 6.852 1.867zm-19.678-29.961c-1.425-.048 1.725 4.921 3.117 4.169 1.383-.759-1.058-4.088-3.117-4.169z" fill="#C97324"/><path d="M89.314 237.536c-.05 1.236 1.513 3.999 2.88 4.226 1.71.282 2.222-2.206 1.018-2.166-1.205.041-1.612-1.761-1.644-2.327-.073-1.341-2.214-.759-2.254.267z" fill="#C97324"/><path d="M99.438 251.627c0-1.082-.204-2.375-.57-3.83-2.881-2.27-7.504-5.462-11.874-6.52 2.328 4.016 4.077 7.547 4.802 9.825 2.034 6.399 7.65 2.012 7.65.525h-.008z" fill="#EDEDED" opacity=".25"/><path d="M90.273 233.585c-1.96.307.155 2.448.684 1.947.537-.501 1.245-2.246-.683-1.947zm-17.212-14.948c-.806-.8 1.856-4.945 3.662-3.911 1.807 1.034 5.16 4.945 5.315 5.454.154.501-.839 1.164-2.035-.355-1.196-1.52-1.807-5.123-3.329-3.483-1.521 1.64-2.718 3.184-3.613 2.295zm13.55 8.742c-1.025.146 1.962 4.646 2.466 4.218.505-.428-.708-4.468-2.466-4.218z" opacity=".3" fill="#F09535"/><path d="M94.685 237.786a.417.417 0 01-.367-.218c-4.329-8.443-10.433-16.782-16.732-22.89-1.033-1.002-3.385-.073-4.931 1.414-.92.88-1.734 2.197-1.01 2.989a.406.406 0 01-.024.574.414.414 0 01-.578-.024c-.936-1.018-.537-2.594 1.05-4.113 1.855-1.778 4.63-2.796 6.063-1.406 6.364 6.165 12.517 14.584 16.887 23.101a.393.393 0 01-.18.541.376.376 0 01-.186.04l.008-.008z" fill="#fff"/><path d="M64.55 235.055c-3.053-.557-5.543 7.022-2.646 7.725 11.898 2.909 29.51 10.9 34.791 15.093 5.282 4.194 7.487-2.553 6.649-3.789-4.272-6.295-22.315-15.999-38.795-19.029z" fill="#F09535"/><path d="M102.595 257.631c-3.524.573-8.594-4.024-11.003-6.141-2.702-2.376-5.388-1.713-8.187-2.731-2.8-1.01-4.427-3.636-6.51-5.002-2.084-1.365-6.105-.557-8.644-.856-2.335-.275-4.59-.735-7.308-4.291-.578 1.867-.44 3.822.96 4.162 11.899 2.908 29.51 10.9 34.792 15.093 2.88 2.287 4.842 1.317 5.9-.242v.008z" fill="#C97324"/><path d="M82.07 244.517c-1.847.105 2.76 5.115 3.866 3.329 1.107-1.778-1.172-3.483-3.866-3.329z" fill="#C97324"/><path d="M63.93 237.665c-2.425 1.697 6.193 3.943 7.024 2.763.83-1.171-5.347-3.943-7.024-2.763zm31.243 14.997c1.14 2.787 5.452 3.442 6.103 2.957 1.091-.816.066-2.933-.911-2.424-1.546.792-2.743-.897-3.223-1.479-1.033-1.228-2.23.291-1.961.946h-.008zm.741-2.893c-.18.388-.806.485-1.4.21-.594-.267-.928-.8-.757-1.188.18-.388.806-.485 1.4-.21.594.267.928.8.757 1.188z" opacity=".3" fill="#F09535"/><path d="M103.352 254.488a.426.426 0 01-.342-.178c-4.224-6.222-21.973-15.813-38.535-18.859a.403.403 0 11.147-.792c16.748 3.079 34.75 12.848 39.055 19.199a.4.4 0 01-.341.622l.016.008z" fill="#fff"/><path d="M126.236 292.044c65.44 6.431 132.434 7.231 152.275 4.896 0 0 12.476-.541 15.414-3.175 2.018-1.81-5.274-68.608-7.52-90.682-2.246-22.075-6.022-69.537-5.33-78.247.683-8.71 4.272-25.573.569-26.842-6.022-2.06-53.069-3.943-67.612-2.844-14.543 1.099-66.734 2.206-66.734 2.206s-10.392 82.238-12.818 100.176c-2.124 15.715-9.383 76.138-11.149 90.908-.212 1.794 1.099 3.418 2.914 3.595l-.009.009z" fill="#F09535"/><path d="M204.632 253.777c24.721 0 44.761-19.897 44.761-44.44 0-24.544-20.04-44.44-44.761-44.44-24.72 0-44.76 19.896-44.76 44.44 0 24.543 20.04 44.44 44.76 44.44z" fill="#fff"/><path d="M293.925 293.765c2.018-1.81-5.274-68.608-7.52-90.682-2.246-22.075-6.022-69.537-5.33-78.247.431-5.462 2.002-14.14 2.197-20.152-.83-7.837-7.162-5.809-7.162 1.221 0 3.587 1.547 7.417.554 12.12-.741 3.49-1.205 7.385-1.205 7.385s-39.625-2.505-64.275-2.594c-22.584-.081-47.569.776-67.084-.178-.147 1.156-.293 2.335-.448 3.531 24.098 1.867 66.05-1.64 79.332-.759 14.649.969 54.429 2.771 54.429 2.771s-.399 54.015 1.106 75.201c2.328 32.885.025 59.38 0 93.558 0 0 12.476-.541 15.414-3.175h-.008z" fill="#C97324"/><path d="M278.52 293.498a.407.407 0 01-.407-.404c.057-10.173.301-19.715.537-28.943.512-20.087.993-39.066-.546-60.737-1.489-20.96-1.106-74.692-1.106-75.233 0-.218.187-.404.407-.404.227 0 .406.186.406.404 0 .541-.382 54.241 1.099 75.168 1.538 21.711 1.058 40.707.545 60.819-.236 9.227-.48 18.761-.537 28.926a.402.402 0 01-.407.404h.009zm-3.061-167.692h-.024c-.399-.025-39.902-2.505-64.252-2.594-7.755-.032-15.918.056-23.804.137-13.168.138-26.775.275-38.51-.121a.397.397 0 01-.391-.42c0-.226.212-.396.423-.388 11.72.388 25.319.251 38.478.121 7.894-.081 16.057-.161 23.821-.137 23.096.089 59.775 2.319 63.918 2.577.138-1.066.561-4.201 1.163-7.037.619-2.933.228-5.495-.146-7.967-.212-1.414-.415-2.747-.415-4.072 0-3.911 1.888-6.287 3.76-6.61 1.57-.267 2.929.792 3.662 2.828a.404.404 0 01-.244.517.402.402 0 01-.521-.242c-.594-1.64-1.62-2.505-2.759-2.303-1.497.259-3.084 2.384-3.084 5.818 0 1.26.195 2.569.406 3.951.367 2.424.79 5.179.139 8.258-.724 3.434-1.196 7.312-1.205 7.352a.405.405 0 01-.407.356l-.008-.024z" fill="#FCB750"/><path d="M140.617 149.981c2.01-.008 10.173.081 9.676 2.077-.561 2.27.155 8.233 4.069 9.898 0 0 .358 6.108 7.17 6.06 0 0 9.432-60.221 12.598-60.439 3.166-.218 11.719 6.432 13.623 8.476 1.905 2.044 3.589 9.316 6.487 12.047 2.897 2.731 10.604 2.198 13.501-.905l-22.966-30.792c-18.328.565-37.477.97-37.477.97s-3.345 26.445-6.681 52.616v-.008zm145.642 136.431c-2.857.767-4.655-11.288-7.349-16.362 0 0-22.787 8.484-29.648 5.421l3.63-9.405s-15.919 1.867-21.184 4.751c-5.265 2.877-20.622 19.691-20.622 19.691s-4.484-5.599-6.291-12.071c-1.807-6.472 3.385-21.485 3.385-21.485s-15.234 12.354-16.121 14.875c-.888 2.521-.147 14.641-.147 14.641s-50.514 6.981-67.531-6.73c-.44 3.644-.798 6.641-1.05 8.718-.212 1.794 1.099 3.418 2.914 3.596 65.439 6.431 132.433 7.231 152.274 4.896 0 0 12.476-.541 15.414-3.175.846-.76.057-12.961-1.318-28.507-.627 9.026-3.044 20.257-6.356 21.146z" fill="#EDEDED" opacity=".25"/><path d="M125.805 268.208h-.048a.412.412 0 01-.359-.453c3.126-25.904 7.162-59.129 8.668-70.264.643-4.726 1.88-14.293 3.694-28.449a.416.416 0 01.456-.348c.22.033.383.235.35.453-1.815 14.156-3.06 23.723-3.695 28.449-1.505 11.135-5.542 44.352-8.667 70.256a.411.411 0 01-.407.356h.008zm155.832-169.81c-.041 0-.09 0-.131-.024-5.843-2.004-52.491-3.951-67.449-2.82-2.808.21-7.235.436-13.16.679a.397.397 0 01-.423-.388.402.402 0 01.391-.42c5.916-.234 10.335-.469 13.135-.679 15.015-1.131 61.883.849 67.775 2.86a.407.407 0 01-.13.792h-.008z" fill="#fff"/><path d="M443.946 271.795v53.32c-43.247 4.751-91.385 1.955-103.73 3.717-43.963 6.286-76.239-.606-76.239-.606-6.332 1.139-11.752-1.818-11.752-1.818-7.325.832-10.262-2.877-10.262-2.877-5.225 2.352-10.67.396-12.68-1.955-1.627-1.907-2.165-4.064-2.165-4.064s-24.797-19.586-26.27-23.739c-1.473-4.145-4.378-18.803-3.369-22.996 1.025-4.194 10.694-13.833 10.694-13.833 4.451.768 7.544 5.09 6.73 8.072-.814 2.981-5.143 6.892-5.51 9.809-.228 1.786 2.702 10.948 3.418 12.314.993 1.891 6.617 6.246 6.617 6.246-1.237-3.2-.09-4.921-.09-4.921s13.144-15.134 17.205-17.275c4.589-2.424 16.341-5.123 16.341-5.123 1.579 1.931 2.824 6.642-.635 8.662-3.458 2.02-7.145 2.691-9.538 4.194-2.938 1.842-7.568 10.1-7.471 10.803.098.711.66 1.818.66 1.818s9.831-7.66 14.722-9.519c5.517-2.092 20.451-3.555 20.451-3.555 5.974 3.483-.57 9.122-.57 9.122l1.791-.412c2.368 1.059 3.841 5.479-2.482 9.228l8.699.541s12.476-.541 15.414-3.175c.513-.461.423-5.188-.032-12.33 16.016.799 34.481 7.36 38.982 6.892 4.5-.477 111.071-16.532 111.071-16.532v-.008z" fill="#FCB750"/><g style="mix-blend-mode:color-burn" opacity=".25" fill="#EDEDED"><path d="M227.126 317.504l-7.682-24.135s-1.001-.776-2.23-1.81c2.018 7.845 3.483 14.721 3.263 20.571a479.711 479.711 0 006.649 5.366v.008z"/><path d="M443.945 311.04c-46.86 9.09-99.75 13.833-99.937 9.914-1.148-24.814-8.944-27.06-8.944-27.06 6.527 11.635 3.149 28.498 3.149 28.498-37.11 9.793-74.375-.097-96.063-1.139-3.166-.154-9.84 2.044-15.032-3.749 0 0 .537 2.157 2.165 4.064 2.01 2.351 7.455 4.306 12.679 1.955 0 0 2.938 3.709 10.263 2.877 0 0 5.42 2.957 11.751 1.818 0 0 32.277 6.892 76.239.606 12.346-1.762 60.484 1.034 103.73-3.717v-14.076.009zm-201.234-32.127c2.393-1.502 6.079-2.173 9.538-4.193 1.75-1.026 2.295-2.739 2.197-4.428-.301 2.149-11.279 5.091-13.062 6.803-1.782 1.713-8.748 9.6-8.797 12.072-.049 2.472 1.538 4.21 1.538 4.21l1.774-1.843s-.561-1.107-.659-1.818c-.098-.703 4.533-8.96 7.471-10.803z"/><path d="M286.511 296.14c-4.004.63-8 .8-8 .8l-8.7-.541c-3.157 2.415-8.35 4.662-8.35 4.662 3.077 2.294 4.729 8.807 4.729 8.807 3.41-2.675 20.24-6.48 20.321-13.728zm-36.785-.97c1.172-1.187 20.777-7.587 20.777-7.587s2.938-2.537 3.076-5.26c-2.661 3.822-6.323 4.42-13.078 5.866-6.177 1.325-10.946 3.895-11.711 4.905-.594.784.122 3.797.472 5.106-.179-.808-.342-2.213.456-3.021l.008-.009zm-.455 3.03c.081.372.17.615.17.615s-.073-.243-.17-.615z"/></g><path d="M264.839 289.264s.887 2.376 3.035 3.66c.277.17 4.24-1.462 4.55-2.674.309-1.212-.285-2.917-2.979-2.352-2.694.558-4.606 1.374-4.606 1.374v-.008zm-1.977-9.017c-.489.339 1.408 3.708 2.775 3.967 1.367.258 4.696-.251 6.226-1.341 1.521-1.083.797-3.838-1.36-3.887-2.156-.048-7.039.832-7.649 1.261h.008zm-18.759-11.862c.187 1.398 1.066 3.176 2.442 3.402 1.375.226 6.714-1.858 7.365-2.763.651-.905.333-2.942-1.018-2.966-1.351-.024-8.789 2.327-8.789 2.327zm-42.229-4.525c1.676.994 4.117 1.907 5.411.768 1.294-1.139 3.589-3.644 3.777-5.155.219-1.753-1.498-3.087-2.881-2.545-1.392.541-6.307 6.924-6.307 6.924v.008z" fill="#FFE78F"/><path d="M266.19 310.272a.408.408 0 01-.399-.307c-.016-.073-1.75-6.949-4.541-8.549a.404.404 0 01-.204-.371.39.39 0 01.236-.348c.057-.024 5.486-2.537 8.277-4.622a.408.408 0 01.57.081.401.401 0 01-.082.566c-2.319 1.729-6.258 3.676-7.796 4.411 2.718 2.255 4.256 8.363 4.321 8.638a.396.396 0 01-.301.485c-.032 0-.065.008-.097.008l.016.008zm1.685-.711a.413.413 0 01-.326-.162.4.4 0 01.081-.565c5.99-4.509 25.774-6.044 26.612-6.109a.4.4 0 01.44.372.408.408 0 01-.374.436c-.204.016-20.387 1.576-26.189 5.939a.401.401 0 01-.244.081v.008zm-15.683.889h-.032a.403.403 0 01-.375-.437c.098-1.187-.586-3.409-1.31-5.753-1.155-3.749-2.352-7.627-1.082-9.324 1.554-2.068 19.011-7.167 20.988-7.74.22-.057.44.064.505.274a.408.408 0 01-.277.501c-7.69 2.222-19.515 6.044-20.565 7.442-1.026 1.365.211 5.381 1.204 8.605.749 2.424 1.457 4.719 1.335 6.06a.407.407 0 01-.407.372h.016zm-13.2-.938a.404.404 0 01-.383-.266c-1.953-5.478-5.216-14.77-5.143-15.401.081-.711 1.546-2.06 2.165-2.61a.414.414 0 01.578.033c.146.169.13.42-.033.573-.985.865-1.855 1.827-1.896 2.101.057.671 3.158 9.583 5.103 15.037a.404.404 0 01-.383.541l-.008-.008zm-12.094 7.337a.41.41 0 01-.39-.275c-.057-.161-5.355-16.329-7.455-23.076a.403.403 0 01.773-.234c2.1 6.746 7.406 22.906 7.455 23.068a.411.411 0 01-.26.509c-.041.016-.082.016-.131.016l.008-.008zm111.324 5.947h-.057a.404.404 0 01-.342-.461c.032-.25 3.508-25.258-5.957-31.051a.403.403 0 01-.13-.558.402.402 0 01.561-.129c9.912 6.068 6.486 30.801 6.332 31.851a.41.41 0 01-.399.348h-.008zm-52.671-25.783c-.708 0-1.44-.016-2.197-.057a.395.395 0 01-.383-.42c.008-.226.179-.404.423-.38 13.127.663 18.059-5.034 18.108-5.098a.413.413 0 01.57-.057.406.406 0 01.057.566c-.196.234-4.696 5.446-16.578 5.446z" fill="#CD851A"/><path d="M332.354 288.755c-2.124 0-6.047-.937-11.288-2.19-7.552-1.802-17.888-4.266-27.19-4.727a.394.394 0 01-.382-.42c.008-.218.179-.412.423-.379 9.375.468 19.76 2.941 27.344 4.751 5.461 1.3 9.774 2.335 11.581 2.141 4.436-.469 109.989-16.37 111.055-16.532a.412.412 0 01.464.339.41.41 0 01-.342.461c-1.066.162-106.628 16.063-111.087 16.532a6.056 6.056 0 01-.562.024h-.016z" fill="#fff"/><path d="M202.085 107.666c-1.847-3.281-21.298-17.097-24.87-17.332-20.46-1.309-38.274 4.258-38.274 4.258s-6.91-2.326-14.088.017c-4.15 1.357-25.163 14.083-29.029 17.614-3.866 3.531-28.826 40.045-33.236 41.701C49.94 158.675-.314 174.972-.314 174.972v61.837c70.705-36.223 94.518-55.922 94.518-55.922 14.632-5.608 19.304-12.855 24.96-14.189 15.039-3.555 20.036-5.817 20.036-5.817l3.263-24.725s10.279 3.2 10.889 3.992c.367.468 2.352 4.872 3.988 8.508-1.131 1.761-3.32 5.195-3.841 6.229-1.498 2.966 1.042 5.713 4.11 5.204-.448 1.422-.765 2.731-.635 3.482.708 4.121 4.565 4.444 4.565 4.444s7.227-12.798 7.056-16.814c-.073-1.866-.382-2.578-.382-2.578s6.331-8.314 5.745-10.98c-.561-2.578-1.261-3.612-1.261-3.612s2.97-20.135 1.44-26.454c-.61-2.521-3.304-3.983-3.304-3.983s3.239-.21 4.183-.097c3.207.379 13.38 6.843 15.487 9.574 2.1 2.723 5.624 11.716 7.707 13.171 4.859 3.393 9.53.937 9.53.937s-4.142-16.839-5.656-19.521v.008z" fill="#FCB750"/><path d="M174.179 100.523c-3.98-1.373-21.762-5.72-29.094-7.49-3.858.857-6.145 1.568-6.145 1.568 25.05 3.918 31.878 9.001 31.878 9.001s3.239-.21 4.183-.097c3.206.38 13.379 6.844 15.487 9.575 2.1 2.723 5.624 11.716 7.707 13.17 1.506 1.05 2.995 1.543 4.33 1.713-3.272-3.321-7.406-14.593-9.595-16.766-2.442-2.424-13.73-8.937-18.767-10.682l.016.008zm-41.033 37.184s-.301 3.208-6.177 4.921c.537 3.539-1.733 8.088-2.783 12.249-1.156 4.582-5.99 7.725-10.873 9.397-4.883 1.673-20.394 14.342-26.954 16.225 0 0-11.442 1.648-21.9-15.247.61 9.268 6.153 13.89 5.648 15.247-2.287 6.141-31.95 19.925-70.42 35.786v20.516c70.705-36.223 94.518-55.922 94.518-55.922 14.632-5.608 19.304-12.855 24.96-14.189 15.039-3.555 20.036-5.817 20.036-5.817l3.263-24.725-5.298-1.632s-1.896 2.278-4.012 3.183l-.008.008zm24.195 10.941c-1.131 1.761-3.32 5.195-3.841 6.229-1.498 2.966 1.042 5.713 4.11 5.204 3.727-5.931 1.644-7.676-.269-11.441v.008z" opacity=".25" fill="#EDEDED"/><path d="M86.302 180.871c-7.495 0-14.82-3.232-23.023-16.75a.407.407 0 01.138-.558.412.412 0 01.562.138c11.377 18.745 21.338 17.024 29.338 15.635a.407.407 0 11.139.8c-2.418.42-4.794.735-7.146.735h-.008zm81.912-31.844a.402.402 0 01-.367-.226c-.073-.153-7.576-15.554-9.375-17.8-2.523-3.159-22.348-10.003-22.551-10.068a.407.407 0 01-.252-.517.409.409 0 01.521-.25c.822.283 20.248 6.989 22.925 10.334 1.856 2.319 9.156 17.315 9.465 17.954a.403.403 0 01-.366.582v-.009zm4.476-14.851a.42.42 0 01-.375-.234c-2.856-6.318-8.675-18.681-10.23-20.224-1.586-1.576-17.114-5.68-22.966-7.127a.405.405 0 11.204-.783c2.173.541 21.314 5.316 23.34 7.336 2.043 2.028 10.051 19.707 10.393 20.459a.405.405 0 01-.204.533.42.42 0 01-.162.032v.008zm-1.864-30.178a.346.346 0 01-.211-.065c-6.08-3.749-19.972-7.127-27.898-8.322a.408.408 0 01-.342-.461.41.41 0 01.464-.34c7.992 1.213 22.03 4.622 28.207 8.436a.404.404 0 01.13.558.413.413 0 01-.35.194zm-28.362 32.562s-.081 0-.122-.016l-9.009-2.78a.408.408 0 01-.269-.509.412.412 0 01.513-.266l9.009 2.779a.408.408 0 01.269.509.41.41 0 01-.391.283zm-14.258 2.448c-1.848 0-3.841-.339-5.77-1.155a.405.405 0 11.325-.744c5.193 2.198 11.125.703 12.59-1.373a.408.408 0 01.57-.097c.187.129.228.38.098.566-1.067 1.502-4.159 2.811-7.805 2.811l-.008-.008zm-6.836 4.59c-.391 0-.643-.008-.692-.008a.402.402 0 01-.391-.421c.009-.226.204-.412.424-.387.081 0 8.252.274 10.408-2.715a.415.415 0 01.57-.097c.179.129.228.38.098.565-2.035 2.82-8.285 3.063-10.401 3.063h-.016zm2.816 11.691h-.025a.406.406 0 01-.382-.428c.057-.872.48-1.955.968-3.199.814-2.069 1.831-4.638 1.807-7.709a.407.407 0 01.814 0c.016 3.224-1.026 5.874-1.864 8.008-.464 1.187-.871 2.205-.92 2.957a.408.408 0 01-.407.38l.009-.009zm33.432 5.156a.465.465 0 01-.228-.065.402.402 0 01-.114-.558c.667-.993 2.352-3.87 2.116-5.276-.301-1.794-2.393-5.656-2.417-5.688a.407.407 0 01.163-.55.413.413 0 01.553.162c.089.162 2.181 4.016 2.498 5.939.334 2.012-2.132 5.704-2.238 5.858a.413.413 0 01-.341.178h.008z" fill="#CD851A"/><path d="M165.048 161.269s-1.628-1.132-2.58-.566c-.952.566-2.368 4.775-2.368 5.301 0 .525 1.44 2.003 1.44 2.003l3.516-6.746-.008.008zm40.244-43.495s-3.801.283-3.842 1.228c-.04.946 1.831 7.612 2.173 7.991.342.38 3.264.986 4.118.194.537-.509-2.449-9.413-2.449-9.413z" fill="#FFE78F"/><path d="M-.313 175.376a.41.41 0 01-.39-.274.404.404 0 01.26-.509c.504-.162 50.392-16.354 62.884-21.041 2.596-.977 13.55-15.804 21.55-26.639 5.388-7.297 10.034-13.599 11.556-14.989 3.907-3.571 24.903-16.305 29.176-17.703 6.779-2.214 13.208-.372 14.217-.057 1.644-.493 18.889-5.47 38.299-4.234 3.98.25 23.373 14.286 25.204 17.534a.404.404 0 01-.155.549.41.41 0 01-.553-.153c-1.864-3.321-21.363-16.92-24.545-17.122-20.15-1.284-37.948 4.186-38.128 4.242a.446.446 0 01-.252 0c-.065-.024-6.868-2.254-13.827.016-4.085 1.334-25.139 14.108-28.874 17.526-1.465 1.333-6.096 7.603-11.45 14.867-10.816 14.649-19.297 25.937-21.917 26.915C50.234 158.998.322 175.19-.175 175.36c-.04.016-.081.016-.13.016h-.008z" fill="#fff"/><g clip-path="url(#clip1_22_1491)" fill="#000"><path d="M215.944 189.058c-1.896-1.418-3.578-.986-5.719-2.342-2.141-1.357-3.333-2.404-6.361-1.757a.443.443 0 01.031-.339c.887-.185 2.293-1.079 3.67-.463.734-.524 1.59-2.589.519-3.359-.581-.401-2.599-.555-4.25.462-1.713 1.048-1.927 2.004-1.927 2.004s.826.277.581 1.695c0 0-1.651.4-2.814 1.448-1.62 1.48-2.782 1.326-4.862 2.528-1.376.801-2.538 2.465-2.477 4.284 3.639-.493 8.44 1.017 10.826 1.418 2.752.462 5.352.863 9.419-.432 2.232-.709 4.129-1.017 5.658-1.14.091-1.171-.398-2.62-2.294-4.007zm-16.484 1.51c-1.192 1.017-2.844.709-3.241.093-.948-1.449 3.241-.74 5.015-3.298.122.062.214.062.214.062s-.306 1.756-1.988 3.143zm5.26 2.035s-1.192-.185-1.192-1.264 1.101-2.25 1.101-4.192c.061-.031.275-.031.367 0 0 1.973 1.101 2.743 1.101 4.069 0 .77-.428 1.387-1.377 1.387zm6.606-2.096c-1.193-.987-2.416-2.096-3.914-2.99l.275-.062s2.263 1.295 3.517 1.541c1.254.278 3.18 1.11 3.18 1.881-.03.801-1.865.585-3.058-.37z"/><path d="M225.009 200.166c0-1.818-1.225-4.327-3.98-5.519-1.01-.439-2.204-.689-3.643-.689h-.275c-5.051.031-5.051 1.317-11.418 1.317-5.571 0-6.429-.972-11.326-.972-.766 0-1.562.031-2.357.094-.521.031-1.041.094-1.562.188-3.122.501-5.969 1.881-5.969 5.362 0 3.794 3.031 6.271 7.439 6.616 0 1.975 1.591 2.947 1.591 2.947l-2.081 5.08.612.721-.275.721-3.613-3.386-.826.752-3.061-2.853-1.347-.282-3.153 5.048-.98-.533-3.091 5.017-1.164-.69-2.479 4.829a35.237 35.237 0 004.959 3.637c.367-.815 1.224-2.696 2.326-4.327 4.898-2.163 9.245-2.978 10.99-3.229l-.184.533.888.846-.949 2.728 1.01.878-.796 3.512.735.565.98-1.223.459.156-.827 2.384.674.376 1.806-3.92.765.251-1.286 4.202.643.282-.428 1.631 1.806.972.643-1.819.765.094-.398 3.575c.704.094 1.408.188 2.112.251l1.347-6.491.735.063-.551 6.114 1.622.188.337-1.254h1.255l-.061 1.505 2.693.188h.062l.061-1.693.704-.063.184.972 1.714-.345v-.784l.428-.156.245.533 1.531-.878-1.408-8.278.704-.157 1.775 6.961.857-.282-.061-1.913.827-.314 1.071 1.662.735-.533-.276-2.54 2.021-1.254-.827-6.71 1.378-.69-.582-2.32 1.255-.596-.735-2.791 1.653-.752-1.5-5.676c5.174-1.317 7.072-5.362 7.072-7.839zm-44.234 18.187l-1.592-.471-2.449 3.356-.459-.095 2.755-4.546 1.745 1.285v.471zm9.275.031l-1.438-1.003-.215-.91-2.357-.752-.52 1.003-1.439-.439-.49-2.069-2.173 1.912-.612-.407 2.265-3.732h.918l3.215 2.917.857-.69 1.5 1.505v1.035l.704.784-.215.846zm3.49-10.41s-.949-1.505-.765-2.885c.398-.313.949-.282.949-.282s-.184 1.724.245 2.979c-.153.157-.429.188-.429.188zm1.225 10.41l-.398-.188.551-3.418.734.22s-.887 3.323-.887 3.386zm1.346 3.167l.735.314-.398 2.32-.796-.314.49-1.661-.551-.22 1.041-4.797.367.125-.888 4.233zm.49-10.442c-.092.471-.183 1.38-.183 1.38l-.398.032-.215-2.446 1.133-1.223.031-.941-.735-.658s-.582-1.161-.031-1.976c.521-.815 2.449-.878 2.449-.878s.612.408.766.847c-.245.941-.215 2.508.061 4.202-1.806.188-2.725.846-2.878 1.661zm-.061-7.368l.092-.408s.826-.596 1.775-.627c.888-.063.888.753.888.753s-1.316-.126-2.755.282zm3.031 21.604l-.582-.157.918-7.807.306.031-.183 1.85.52.251-.979 5.832zm3.826-.94l-.582-.095-.091-3.167.887.126-.214 3.136zm2.939 6.678l-.582.157-.551-7.525 1.163-.283v7.651h-.03zm7.653-21.259l.03.533 1.01-.125v.407l-1.408.659.766 7.462-.582.345-.765-2.132-.643.157-.49-1.537-.918.377.796 5.832-.674.376-1.071-4.797-.857.407.03 4.045-.673.377-.766-3.606s-1.071-.565-3.091-.565c-1.868 0-2.235.941-2.235.941h-.398s-.306-.596-.092-1.537c1.898-.689 4.072-.282 4.072-.282s.612-.313.52-1.066c-1.622.282-2.724-.313-2.724-.313l.03-.471s.704.188 1.561.126c1.715-.094 1.531-.345 3-.753a13.813 13.813 0 011.378-.282l.214-.753s-1.133.188-1.775.157c-.796-.031-1.5-.345-1.5-.345l.03-.407c2.174-.565 4.959-.063 4.959-.063s-.061-2.195-1.102-3.073c0 0-1.04-1.035-3.642-.878a2.447 2.447 0 00-.766-1.348s-.153.094-.275.219c.52 1.693-.459 2.038-1.286 2.038-.826 0-.796.784-2.388.784-.52 0-1.622-.251-1.622-1.317 0-4.107.704-5.675.704-7.619 0-1.913-3.337-2.227-3.337-2.227l-.091-.784-1.653-.282-.092-.721s1.683.345 4.04.345c3.796 0 4.194-.596 9.429-.596 5.234 0 6.581 3.324 6.581 3.324l-.306.721-1.377-.658s-.49.69-.827 2.728c-.398 2.54.398 5.205.398 5.205l1.316-.157.092.69-1.53.439zm3.887-5.048l-.551.219s.061-.69-.459-.564c-.52.125-.735 2.571-.735 2.571l-.428.125s-.398-3.951.918-3.951c1.347.032 1.255 1.6 1.255 1.6z"/><path d="M231.841 224.853l1.835 3.312a38.37 38.37 0 005.981-4.062l-2.785-4.594-.981.438-.917-1.125-.792.469-4.841-5.313-1.899.75-2.563-3.437-1.551-.5-1.139 3.312-2.152.969.475 2.656-1.361.656.665 2.125-1.709 1.031 1.203 6.625-2.405 1.469.158 2.343-1.804.969-.538-1-.443.094-.032 1.656-1.835.719v.093l.063.313-2.278.812.063.438-2.12.281-.032.25a73.13 73.13 0 005.918-.5l.127-.344.949-.218.158.406a53.193 53.193 0 003.987-.719l-.031-1.156.949-.312v-.5l-.032-1.532.475-.406-.158-2.437.601-.156.823 4.093.031.156.475.313.095 1.125c.443-.125.918-.25 1.361-.406v-.969l.791-.25.221.5.76-.313-.285-1.218-.38-1.563.507-.094.664 1.375.728 1.5a51.793 51.793 0 005.822-2.562l-.601-1.469-1.234-3.031-9.145-4.125.285-.593 9.873 3.656zm2.879-4.5l.76.937.917-.468 1.868 3.375-.507.25-1.772-2.125-.854.156-.95-1.875.538-.25zm-13.069-3.312l-.38-1.063 1.962-.937.602-2.344.696.156 1.962 3.563 2.436-.906 3.608 3.718-.253.344-3.703-1.875-1.93.812-1.297-1.031-1.583.281-.886-1.218-1.234.5zm-25.938 17.953v.486a56.629 56.629 0 01-6.243-1.307l-.031-.578-.761-.212-.152.516a59.079 59.079 0 01-2.193-.668l.031-.304-.579-.243.487-1.885-.487-.364.64-2.857-.427-.092-2.223 4.863-.639-.273 1.157-3.982-.792-.121-1.035 2.34-.579-.152-.548 1.125a41.21 41.21 0 01-3.654-1.885c.487-1.246 1.705-4.285 2.497-5.349 2.466-1.611 9.379-3.161 9.379-3.161l.366.425-1.127 2.766 1.309 1.246-1.065 3.465 1.857 1.064v1.277l2.041.911-.153 1.429.823.395v.517l2.101.608zm9.014-27.918l-1.127.348.361-4.489.495.174.271 3.967zm6.208-3.657c-.079.149-.184.298-.184.298s-2.709-.32-4.077.085c-.369.107-.895.256-.895.256l-.131-1.747-.895-.448s-.105-.319.106-.617c1.42-.852 3.472-.469 3.472-.469l2.92.873.237.81s-2.499-.852-3.973-.107c-.236.192-.157.363-.157.363s1.736-.256 3.577.703z"/></g><path d="M324.126 96.96c-4.5-2.384-9.684-2.133-12.362 1.535-5.42 7.426-6.754 21.647-6.608 22.673.147 1.042 3.752 1.89 3.752 1.89s6.413-20.095 8.545-22.704c2.132-2.61 6.673-3.386 6.673-3.386v-.008z" fill="#AF52DB"/><path d="M312.61 112.005c-2.091-.63-4.256-1.301-5.762-1.818-.13.533-.26 1.058-.374 1.584 1.563.533 3.654 1.179 5.599 1.769.179-.509.35-1.018.537-1.527v-.008zm-1.969-11.781c2.604.954 4.346 1.77 5.55 2.457.261-.574.497-1.059.708-1.463-1.228-.695-2.937-1.487-5.371-2.392a21.92 21.92 0 00-.887 1.398zm4.069 6.06c-2.027-.565-4.33-1.179-6.161-1.575a31.32 31.32 0 00-.545 1.527c1.579.347 3.792.921 6.128 1.575.195-.525.391-1.026.578-1.519v-.008zm2.474-10.819a8.005 8.005 0 00-3.166 1.01c1.839.178 4.289.954 6.12 1.826.667-.34 1.335-.606 1.937-.8-1.302-.775-3.101-1.519-4.891-2.028v-.008zm-6.803 23.068c-1.742-.573-3.508-1.228-4.81-1.85-.09.606-.163 1.172-.22 1.681 1.343.606 2.971 1.196 4.525 1.713.155-.469.325-.986.513-1.535l-.008-.009z" fill="#AF52DB"/><path d="M320.187 100.127c8.814 3.628 6.502 15.708 5.794 27.48-.113 1.891 3.671 2.045 3.671 2.045 5.379-30.704-7.39-32.854-9.465-29.525z" fill="#D2F0F7"/><path d="M330.197 129.417c4.126-14.091 1.587-31.108-7.568-32.918-9.156-1.81-12.501 16.306-13.721 26.551 0 0 1.928.622 2.881.073 0 0 4.126-25.202 10.653-23.448 10.547 2.836 5.582 26.575 5.363 28.522-.033 1.196 2.164 1.81 2.392 1.22z" fill="#fff"/><path d="M307.655 139.564c-8.065 2.012-9.074 3.636-10.328 16.564-1.253-12.928-2.27-14.552-10.327-16.564 8.065-2.012 9.074-3.636 10.327-16.564 1.254 12.928 2.271 14.552 10.328 16.564zM119 204.5c-6.638 1.64-7.468 2.963-8.5 13.5-1.032-10.537-1.869-11.86-8.5-13.5 6.638-1.64 7.468-2.963 8.5-13.5 1.032 10.537 1.869 11.86 8.5 13.5z" fill="#FCB750"/></g><defs><clipPath id="clip0_22_1491"><path fill="#fff" d="M0 0h433v404H0z"/></clipPath><clipPath id="clip1_22_1491"><path fill="#fff" transform="translate(172.051 180.491)" d="M0 0h67.606v56.111H0z"/></clipPath></defs></svg>