<svg width="30" height="30" viewBox="0 0 30 30" fill="none" xmlns="http://www.w3.org/2000/svg"><path d="M4.566 13.043v10.672c0 .63.245 1.233.68 1.677a2.293 2.293 0 001.64.695h16.231c.615 0 1.205-.25 1.64-.695a2.397 2.397 0 00.679-1.677V13.044H4.566zm0 0V8.261c0-.634.24-1.243.669-1.691a2.231 2.231 0 011.614-.7h2.283m-.003-1.957v4.565m16.304 4.565V8.261a2.58 2.58 0 00-.611-1.691c-.392-.449-.922-.7-1.476-.7h-.522m-3.91-1.957v4.565m-.001-2.608h-5.87" stroke="#000" stroke-width="2" stroke-linecap="round" stroke-linejoin="round"/></svg>