<svg width="32" height="32" viewBox="0 0 32 32" fill="none" xmlns="http://www.w3.org/2000/svg"><path d="M16.001 26.435c-5.763 0-10.435-4.672-10.435-10.435 0-5.763 4.672-10.435 10.435-10.435 5.763 0 10.435 4.672 10.435 10.435 0 5.763-4.672 10.435-10.435 10.435z" stroke="#FC0" stroke-width="2" stroke-linecap="round" stroke-linejoin="round"/><path d="M20.868 18.783s-1.623 2.087-4.87 2.087c-3.246 0-4.87-2.087-4.87-2.087" stroke="#FC0" stroke-width="2" stroke-linecap="round" stroke-linejoin="round"/><path d="M19.477 13.217a.696.696 0 110-1.391.696.696 0 010 1.391zm-6.957 0a.696.696 0 110-1.391.696.696 0 010 1.391z" fill="#FC0" stroke="#FC0" stroke-width="2" stroke-linecap="round" stroke-linejoin="round"/></svg>