<svg width="32" height="32" viewBox="0 0 32 32" fill="none" xmlns="http://www.w3.org/2000/svg"><path d="M18.784 8.696a3.13 3.13 0 10-6.26 0v6.26a3.13 3.13 0 106.26 0v-6.26z" stroke="#FC0" stroke-width="2" stroke-linecap="round" stroke-linejoin="round"/><path d="M8.348 13.913v.957c0 .879.189 1.75.556 2.562a6.69 6.69 0 001.583 2.172 7.38 7.38 0 002.37 1.451c.886.337 1.836.51 2.795.51.96 0 1.91-.173 2.795-.51a7.382 7.382 0 002.37-1.45 6.69 6.69 0 001.583-2.173 6.215 6.215 0 00.556-2.562v-.957m-7.302 12.522h3.13m-3.13 0v-4.87m0 4.87h-3.13" stroke="#FC0" stroke-width="2" stroke-linecap="round" stroke-linejoin="round"/></svg>