<svg width="40" height="40" viewBox="0 0 40 40" fill="none" xmlns="http://www.w3.org/2000/svg"><path fill-rule="evenodd" clip-rule="evenodd" d="M19.238 6.113c-.177.012-.467.04-.645.064a13.236 13.236 0 00-1.134.205 11.968 11.968 0 00-1.207.356c-.156.057-.418.16-.58.228a12.97 12.97 0 00-1.364.688 13.128 13.128 0 00-1.159.791c-.142.112-.39.317-.548.456a13.269 13.269 0 00-1.405 1.483c-.157.201-.405.544-.55.763-.145.22-.334.519-.418.666a13.288 13.288 0 00-.67 1.38c-.068.168-.17.436-.226.596-.056.16-.144.443-.197.63a13.333 13.333 0 00-.296 1.35c-.023.15-.06.439-.082.64a11.64 11.64 0 00-.044 1.845c.017.275.049.636.07.805a13.642 13.642 0 00.226 1.26c.043.179.121.473.175.653.054.18.15.468.213.64a12.076 12.076 0 00.635 1.43c.104.195.267.484.364.64.096.158.256.405.356.55.1.145.257.36.348.477.091.117.277.342.413.5.136.157.329.368.43.468.1.1.248.216.33.259.126.066.177.076.374.076.204 0 .247-.01.407-.09a.948.948 0 00.272-.2c.051-.061.12-.168.154-.237.05-.105.061-.171.062-.386 0-.223-.01-.279-.07-.408-.045-.097-.171-.26-.359-.463a11.74 11.74 0 01-.513-.6 11.557 11.557 0 01-.432-.599c-.115-.172-.27-.422-.347-.555a11.096 11.096 0 01-.55-1.118 11.659 11.659 0 01-.242-.652c-.065-.197-.16-.53-.212-.74-.051-.21-.118-.529-.148-.708-.03-.18-.074-.516-.095-.747-.022-.231-.04-.626-.04-.877 0-.252.013-.615.028-.806.016-.192.053-.509.083-.704a11.79 11.79 0 01.32-1.413c.045-.15.16-.468.254-.708.095-.241.262-.613.37-.826.11-.214.293-.539.407-.723.114-.184.312-.476.44-.65.128-.172.334-.43.459-.571a11.686 11.686 0 011.022-1.023c.117-.102.329-.272.47-.379.14-.107.4-.287.575-.4.175-.113.469-.286.652-.385.184-.099.477-.242.651-.318.175-.076.451-.185.616-.243.163-.058.43-.143.592-.19.162-.046.44-.114.617-.151.177-.037.454-.085.615-.108.16-.023.503-.055.76-.072a8.51 8.51 0 01.815-.013c.191.01.474.029.629.043.154.015.43.051.615.081a10.068 10.068 0 011.422.356c.181.061.457.165.613.23a10.897 10.897 0 011.217.614c.13.078.364.23.518.335.154.107.431.315.615.463a11.664 11.664 0 011.432 1.447c.118.15.286.377.375.505.088.127.24.36.336.517.096.157.248.427.338.6.089.171.233.484.321.694a10.665 10.665 0 01.47 1.417 12.273 12.273 0 01.235 1.307c.022.188.036.592.035 1.076 0 .595-.011.863-.048 1.145a16.64 16.64 0 01-.102.654 11.85 11.85 0 01-.143.64c-.05.195-.147.52-.216.722-.069.202-.197.533-.284.736-.088.202-.238.515-.335.694-.096.18-.288.502-.427.717a12.76 12.76 0 01-.522.735c-.211.27-1.192 1.287-4.47 4.63l-4.2 4.285.648.66.648.661 4.12-4.196c2.265-2.307 4.23-4.324 4.367-4.481.136-.158.337-.403.446-.545a13.728 13.728 0 00.834-1.255 14.857 14.857 0 00.739-1.55c.072-.188.175-.477.229-.642.053-.164.144-.483.201-.708.057-.225.135-.574.172-.776.037-.203.086-.51.107-.682.022-.172.053-.54.07-.817a11.507 11.507 0 00-.044-1.848 14.974 14.974 0 00-.104-.777 13.112 13.112 0 00-.149-.74 15.624 15.624 0 00-.191-.708 13.337 13.337 0 00-.28-.804 13.997 13.997 0 00-.372-.858c-.108-.225-.3-.586-.427-.803a13.103 13.103 0 00-.447-.709 14.813 14.813 0 00-.463-.627 14.231 14.231 0 00-.528-.622c-.154-.17-.417-.438-.584-.595a13.86 13.86 0 00-.61-.537c-.17-.138-.41-.326-.535-.418-.125-.091-.36-.251-.522-.355-.162-.104-.45-.277-.642-.384a12.604 12.604 0 00-.762-.382 13.7 13.7 0 00-.762-.316c-.19-.07-.53-.182-.755-.248a12.872 12.872 0 00-.869-.213 13.355 13.355 0 00-.809-.137 11.964 11.964 0 00-1.497-.093c-.206.002-.519.014-.695.026zm-2.999 10.112l-1.394 3.603-.418.007-.418.008.007.537.008.538 2.119.006 2.119.007v-1.09h-.308c-.169 0-.307-.01-.307-.023s.13-.408.29-.878c.16-.47.302-.858.317-.862.014-.005.42.648.903 1.451.482.803.886 1.45.897 1.438.012-.012.408-.666.88-1.452.472-.787.872-1.43.889-1.43.016 0 .16.38.319.844.158.464.289.86.29.878 0 .026-.078.034-.307.034h-.307v1.09h4.251v-1.088l-.416-.008-.416-.007-1.4-3.595c-.768-1.978-1.408-3.6-1.421-3.603-.013-.005-.547.93-1.186 2.075-.64 1.145-1.175 2.079-1.19 2.075-.015-.004-.55-.937-1.191-2.074-.64-1.137-1.176-2.07-1.19-2.075-.014-.005-.653 1.612-1.42 3.594z" fill="#FF3F00"/></svg>