<svg width="43" height="43" viewBox="0 0 43 43" fill="none" xmlns="http://www.w3.org/2000/svg"><path d="M10.348 9.348l19.91 21.521c.377.409.59.963.59 1.54a2.27 2.27 0 01-.59 1.54 1.94 1.94 0 01-1.425.638c-.534 0-1.046-.23-1.424-.637l-4.865-5.35a1.95 1.95 0 01-.496-1.31v-.324a2 2 0 00-.134-.72 1.881 1.881 0 00-.381-.61l-.627-.626a1.694 1.694 0 00-.754-.44 1.603 1.603 0 00-.857.005 2.433 2.433 0 01-1.349-.007 2.583 2.583 0 01-1.168-.73l-4.615-4.992c-2.74-2.96-3.747-7.43-1.815-9.5zm17.696-.935l-2.58 3.61a3.262 3.262 0 00-.462.971 4.054 4.054 0 00-.163 1.145v.694a.92.92 0 01-.157.529l-.377.53m2.805 2.804l.559-.378a.864.864 0 01.257-.116c.096-.027.199-.04.303-.04h.735c.416 0 .828-.056 1.213-.163a3.545 3.545 0 001.028-.464l3.383-2.579m-3.273-3.271l-3.272 3.271M16.825 29.077l-4.995 4.934a2.021 2.021 0 01-1.416.576c-.531 0-1.04-.207-1.416-.576a1.95 1.95 0 01-.586-1.391c0-.522.21-1.022.586-1.391l4.22-4.12" stroke="#fff" stroke-width="2" stroke-linecap="round" stroke-linejoin="round"/></svg>