<svg width="32" height="32" viewBox="0 0 32 32" fill="none" xmlns="http://www.w3.org/2000/svg"><path d="M10.285 10.54a5.37 5.37 0 011.844-3.544A5.904 5.904 0 0116 5.566c1.433 0 2.815.51 3.873 1.43a5.37 5.37 0 011.843 3.544h.023c1.246 0 2.44.47 3.32 1.309a4.362 4.362 0 011.376 3.16 4.363 4.363 0 01-1.375 3.16 4.82 4.82 0 01-3.32 1.31H10.261a4.82 4.82 0 01-3.32-1.31 4.363 4.363 0 01-1.376-3.16c0-1.185.495-2.322 1.376-3.16a4.819 4.819 0 013.32-1.31h.023zM16 18.087L18.087 16m-2.086 0l-2.782-2.783M16 26.435V13.217" stroke="#FC0" stroke-width="2" stroke-linecap="round" stroke-linejoin="round"/></svg>